<svg width="161" height="27" viewBox="0 0 161 27" fill="none" xmlns="http://www.w3.org/2000/svg">
<path fill-rule="evenodd" clip-rule="evenodd" d="M12.432 13.1484V26.0276C12.6563 26.0276 12.8036 25.979 13.0049 25.864L23.3178 19.971C23.7249 19.7377 23.8909 19.3763 23.8909 18.9069V6.95721C23.8909 6.72177 23.8413 6.58092 23.727 6.38428L12.7619 12.5798C12.5579 12.6964 12.432 12.9134 12.432 13.1484V13.1484ZM18.1613 20.5439C18.1613 20.8713 18.0386 21.035 17.7521 21.1987L14.3145 23.1631C14.069 23.3267 13.7416 23.2449 13.7416 22.9175V14.1598C13.7416 13.9255 13.9477 13.6219 14.1508 13.505L22.0082 9.0034C22.2265 8.8778 22.4174 9.07897 22.4174 9.33079V13.9962C22.4174 14.2379 22.3034 14.4553 22.09 14.5691L18.5706 16.4515C18.3572 16.5653 18.1613 16.7826 18.1613 17.0245V20.5439Z" fill="black"/>
<path fill-rule="evenodd" clip-rule="evenodd" d="M0.973022 18.9067V6.95704C0.973022 6.48709 1.21978 6.04434 1.6278 5.81117L11.6132 0.163692C11.8283 0.049682 12.1861 0 12.4317 0C12.6773 0 13.056 0.0608095 13.2502 0.163695L23.1537 5.81117C23.3496 5.92695 23.6158 6.19364 23.7266 6.38411L12.759 12.6045C12.5551 12.7211 12.4317 12.9425 12.4317 13.1774V26.0276C12.2074 26.0276 11.9782 25.9788 11.7769 25.8638L1.70965 20.0527C1.30162 19.8194 0.973022 19.3767 0.973022 18.9067V18.9067ZM2.44628 9.33061V13.996C2.44628 14.3233 2.52813 14.487 2.85552 14.6507L6.29311 16.6151C6.6205 16.7788 6.70235 17.0243 6.70235 17.2698V20.5437C6.70235 20.8711 6.7842 21.0348 7.11159 21.1985L10.5492 23.1629C10.8765 23.3266 11.1221 23.2447 11.1221 22.9173V14.1597C11.1221 13.9141 11.0403 13.6685 10.7129 13.5049L3.01921 9.08507C2.77367 8.92139 2.44628 9.00323 2.44628 9.33061V9.33061ZM15.8693 3.76498L12.8409 5.48378C12.5954 5.64748 12.268 5.64748 12.0225 5.48378L8.99408 3.76498C8.79474 3.65231 8.53897 3.65289 8.3393 3.76498L4.57432 5.89302C4.24693 6.05672 4.24693 6.38411 4.57432 6.5478L12.1042 10.8857C12.3058 11.0011 12.5576 11.0011 12.759 10.8857L20.289 6.5478C20.5346 6.38411 20.6165 6.05672 20.289 5.89302L16.5241 3.76498C16.3244 3.65289 16.0687 3.65231 15.8693 3.76498V3.76498Z" fill="black"/>
<path d="M47.5024 15.0439H45.0554C44.6998 17.2608 43.2149 18.5366 41.1653 18.5366C38.4464 18.5366 36.6686 16.4242 36.6686 13.057C36.6686 9.73158 38.3836 7.57738 41.0189 7.57738C43.1522 7.57738 44.5534 8.83225 44.9508 11.091H47.3978C46.9168 7.78652 44.2606 5.63232 40.9352 5.63232C36.9405 5.63232 34.1798 8.93682 34.1798 13.057C34.1798 17.3027 37.0033 20.4817 40.998 20.4817C44.3234 20.4817 47.0004 18.3484 47.5024 15.0439Z" fill="black"/>
<path d="M58.7307 15.0439C58.7307 12.2204 56.7857 9.60609 53.6067 9.60609C50.4276 9.60609 48.4826 12.2204 48.4826 15.0439C48.4826 17.8673 50.4276 20.4817 53.6067 20.4817C56.7857 20.4817 58.7307 17.8673 58.7307 15.0439ZM50.8878 15.0439C50.8878 12.806 51.8707 11.3002 53.6067 11.3002C55.3635 11.3002 56.3465 12.806 56.3465 15.0439C56.3465 17.2608 55.3635 18.7876 53.6067 18.7876C51.8707 18.7876 50.8878 17.2608 50.8878 15.0439Z" fill="black"/>
<path d="M67.5642 18.0765H67.6269V20.2725H69.8648V5.84147H67.6269V11.9904H67.5642C67.0622 10.5472 65.8492 9.60609 64.2597 9.60609C61.478 9.60609 59.8676 12.1158 59.8676 15.0439C59.8676 17.9719 61.4153 20.4817 64.2597 20.4817C65.8492 20.4817 67.0622 19.5196 67.5642 18.0765ZM62.2728 15.0439C62.2728 12.806 63.2558 11.3002 64.9917 11.3002C66.7485 11.3002 67.7106 12.806 67.7106 15.0439C67.7106 17.2608 66.7485 18.7876 64.9917 18.7876C63.2558 18.7876 62.2728 17.2608 62.2728 15.0439Z" fill="black"/>
<path d="M81.116 17.0308H78.8363C78.5853 17.8673 77.9997 18.7876 76.6403 18.7876C75.0508 18.7876 73.9423 17.6791 73.8377 15.7759H81.3042C81.6179 12.1368 79.5683 9.60609 76.4521 9.60609C73.3358 9.60609 71.558 12.1577 71.558 15.0439C71.558 17.9301 73.3776 20.4817 76.4939 20.4817C79.0455 20.4817 80.6768 19.1013 81.116 17.0308ZM76.4521 11.3002C77.9788 11.3002 78.8781 12.3877 79.0245 14.0818H73.8586C74.005 12.3877 74.9253 11.3002 76.4521 11.3002Z" fill="black"/>
<path d="M94.2074 16.2988C94.2074 14.0191 92.8479 12.5969 90.129 11.9694L88.0376 11.4675C85.9043 10.9655 85.1723 10.5054 85.1723 9.52243C85.1723 8.28847 86.3644 7.57738 88.0167 7.57738C89.7107 7.57738 91.1538 8.41396 91.3421 10.129H93.7891C93.5381 7.64012 91.6558 5.63232 87.9748 5.63232C85.0677 5.63232 82.6834 7.26366 82.6834 9.68975C82.6834 11.6975 84.0847 13.0152 86.9082 13.6844L88.9996 14.1655C90.861 14.6047 91.7394 15.2321 91.7394 16.4033C91.7394 17.7419 90.38 18.5366 88.5395 18.5366C86.5108 18.5366 84.984 17.0726 84.8376 15.1903H82.3906C82.6207 17.8046 84.6912 20.4817 88.5186 20.4817C91.8649 20.4817 94.2074 18.7039 94.2074 16.2988Z" fill="black"/>
<path d="M102.084 18.2229H102.147V20.2725H104.343V13.8517C104.343 11.0283 102.649 9.60609 99.9929 9.60609C97.2949 9.60609 95.6635 11.091 95.5799 13.1197H97.8596C97.9223 11.9485 98.6752 11.3002 99.951 11.3002C101.269 11.3002 102.063 12.0322 102.063 13.4335V13.7472L99.4072 14.0191C97.0857 14.27 95.2034 15.0648 95.2034 17.219C95.2034 19.1222 96.7302 20.4817 98.9053 20.4817C100.474 20.4817 101.645 19.666 102.084 18.2229ZM97.6086 17.2399C97.6086 16.236 98.4034 15.7341 99.7837 15.5877L102.063 15.3367V15.6922C102.063 17.6791 101.122 18.7876 99.4909 18.7876C98.487 18.7876 97.6086 18.2229 97.6086 17.2399Z" fill="black"/>
<path d="M108.802 20.2725V13.9981C108.802 12.2832 109.492 11.3211 110.893 11.3211C112.294 11.3211 112.985 12.1995 112.985 14.1446V20.2725H115.264V13.4753C115.264 11.1747 114.135 9.60609 111.834 9.60609C110.307 9.60609 109.22 10.4008 108.781 11.8649H108.739V9.81524H106.522V20.2725H108.802Z" fill="black"/>
<path d="M124.589 18.0765H124.652V20.2725H126.89V5.84147H124.652V11.9904H124.589C124.087 10.5472 122.874 9.60609 121.285 9.60609C118.503 9.60609 116.892 12.1158 116.892 15.0439C116.892 17.9719 118.44 20.4817 121.285 20.4817C122.874 20.4817 124.087 19.5196 124.589 18.0765ZM119.298 15.0439C119.298 12.806 120.281 11.3002 122.017 11.3002C123.773 11.3002 124.735 12.806 124.735 15.0439C124.735 17.2608 123.773 18.7876 122.017 18.7876C120.281 18.7876 119.298 17.2608 119.298 15.0439Z" fill="black"/>
<path d="M139.166 15.0439C139.166 12.1158 137.555 9.60609 134.774 9.60609C133.184 9.60609 131.971 10.5472 131.469 11.9904H131.406V5.84147H129.168V20.2725H131.406V18.0765H131.469C131.971 19.5196 133.184 20.4817 134.774 20.4817C137.618 20.4817 139.166 17.9719 139.166 15.0439ZM131.323 15.0439C131.323 12.806 132.285 11.3002 134.042 11.3002C135.777 11.3002 136.76 12.806 136.76 15.0439C136.76 17.2608 135.777 18.7876 134.042 18.7876C132.285 18.7876 131.323 17.2608 131.323 15.0439Z" fill="black"/>
<path d="M150.563 15.0439C150.563 12.2204 148.618 9.60609 145.439 9.60609C142.26 9.60609 140.315 12.2204 140.315 15.0439C140.315 17.8673 142.26 20.4817 145.439 20.4817C148.618 20.4817 150.563 17.8673 150.563 15.0439ZM142.72 15.0439C142.72 12.806 143.703 11.3002 145.439 11.3002C147.196 11.3002 148.179 12.806 148.179 15.0439C148.179 17.2608 147.196 18.7876 145.439 18.7876C143.703 18.7876 142.72 17.2608 142.72 15.0439Z" fill="black"/>
<path d="M152.885 20.2725L155.667 16.2151L158.448 20.2725H161L157.005 14.6256L160.477 9.81524H157.926L155.667 13.0779L153.408 9.81524H150.835L154.328 14.6465L150.313 20.2725H152.885Z" fill="black"/>
</svg>
