<svg width="250" height="50" viewBox="0 0 250 50" fill="none" xmlns="http://www.w3.org/2000/svg">
    <path d="M130.194 33.696h4.663V16.884h-4.663v16.812ZM132.537 14.717c1.389 0 2.528-1.061 2.528-2.364 0-1.291-1.139-2.353-2.528-2.353-1.38 0-2.518 1.062-2.518 2.353 0 1.303 1.138 2.364 2.518 2.364ZM121.796 11.28h4.663v22.415h-4.663V11.279ZM74.18 33.696h4.663V23.604c0-1.86 1.182-3.097 2.736-3.097 1.532 0 2.561 1.05 2.561 2.703v10.486h4.52V23.429c0-1.74.997-2.922 2.693-2.922 1.489 0 2.605.93 2.605 2.802v10.387h4.652V22.39c0-3.645-2.168-5.725-5.298-5.725-2.462 0-4.378 1.259-5.067 3.185h-.175c-.537-1.948-2.255-3.185-4.564-3.185-2.266 0-3.984 1.204-4.685 3.185h-.197v-2.966H74.18v9.607l-8.908-15.43h-4.21l13.063 22.634h.055Z" fill="#fff" />
    <path fill-rule="evenodd" clip-rule="evenodd" d="M102.292 40h4.663v-8.997h.142c.646 1.401 2.058 2.966 4.772 2.966 3.831 0 6.819-3.032 6.819-8.657 0-5.78-3.119-8.647-6.808-8.647-2.812 0-4.159 1.675-4.783 3.043h-.208v-2.824h-4.597V40Zm4.565-14.71c0-2.999 1.269-4.914 3.535-4.914 2.309 0 3.535 2.003 3.535 4.914 0 2.933-1.248 4.969-3.535 4.969-2.244 0-3.535-1.97-3.535-4.97Z" fill="#fff" />
    <path d="M144.294 16.884h3.338v3.503h-3.338v13.309h-4.663v-13.31h-2.375v-3.502h2.375V15.67c0-3.655 2.354-5.44 5.517-5.44 1.434 0 2.714.285 3.294.46l-.821 3.503a5.172 5.172 0 0 0-1.499-.241c-1.368 0-1.828.667-1.828 1.806v1.127ZM153.359 40c3.47 0 5.308-1.774 6.261-4.488l6.534-18.607-4.936-.021-3.514 12.346h-.175l-3.48-12.346h-4.904l6.031 17.293-.274.711c-.613 1.576-1.784 1.653-3.425 1.15l-1.051 3.48c.668.285 1.751.481 2.933.481ZM189.606 25.431V11.28h4.739v14.557c0 4.904-3.721 8.176-9.292 8.176-5.593 0-9.292-3.273-9.292-8.176V11.28h4.739v14.152c0 2.561 1.806 4.411 4.553 4.411 2.758 0 4.553-1.85 4.553-4.41ZM202.984 11.28h-4.74v22.415h4.74V11.279ZM63.148 29.843h-8.546l4.227-7.318-2.19-3.795L48 33.695h17.337l-2.19-3.852ZM59.892 13.088l-2.103 3.644 9.79 16.963h4.215L59.891 13.088Z" fill="#fff" />
</svg>