<svg width="100%" height="100%" viewBox="0 0 120 51" fill="none" xmlns="http://www.w3.org/2000/svg">
    <path fill-rule="evenodd" clip-rule="evenodd" d="M98.726 7.36c.007.126.014.252-.041.378a.513.513 0 0 1-.152-.027c-.871-.424-1.8-.588-2.758-.6-1.365-.017-2.646.28-3.745 1.136-.881.686-1.429 1.609-1.85 2.62-.447 1.073-.642 2.203-.723 3.353-.124 1.744-.011 3.462.646 5.108.562 1.407 1.456 2.54 2.791 3.28 1.05.581 2.199.829 3.398.88a22.05 22.05 0 0 0 3.686-.204 22.418 22.418 0 0 0 2.498-.495c.279-.068.401-.198.353-.482a.939.939 0 0 1 0-.15V.483l.001-.026.003-.044.001-.02c.008-.124.016-.25-.052-.366-.114-.046-.224-.024-.332-.003l-.023.005-.038.007c-.365.062-.729.127-1.092.192h-.003c-.7.125-1.4.25-2.102.355-.485.073-.483.12-.473.402v.002c.001.044.003.095.003.152V7.28l.002.033.002.047Zm-.003 8.8v-.713l-.001-1.385v-.032c-.002-.804-.004-1.61-.001-2.416 0-.249-.07-.385-.3-.492a4.722 4.722 0 0 0-2.023-.473c-1.07-.001-1.849.466-2.284 1.466-.075.167-.14.339-.195.513-.355 1.183-.378 2.395-.267 3.612.061.799.29 1.576.672 2.28.453.818 1.134 1.3 2.062 1.4.664.074 1.328.014 1.991-.05.275-.026.347-.14.347-.407-.005-.866-.003-1.733-.002-2.6l.001-.703Z" fill="#fff" />
    <path d="m71.74 18.907-.14.067-.006.003c-.154.075-.282.136-.414.196a8.264 8.264 0 0 1-4.908.73c-1.324-.204-2.356-.861-3.022-2.052a7.468 7.468 0 0 1-.718-1.856c-.388-1.568-.39-3.168-.277-4.768a7.926 7.926 0 0 1 .842-3.06c.731-1.435 1.87-2.328 3.478-2.528a7.371 7.371 0 0 1 3.398.345c.585.212 1.153.468 1.698.766l.258-.793.001-.003c.245-.753.484-1.489.734-2.222.064-.192 0-.26-.146-.353a8.164 8.164 0 0 0-1.799-.852 10.53 10.53 0 0 0-4.976-.395c-1.804.29-3.404 1.023-4.709 2.323-1.773 1.772-2.606 3.978-2.905 6.42a17.793 17.793 0 0 0 .016 4.138c.167 1.479.5 2.917 1.199 4.248 1.142 2.18 2.896 3.561 5.316 4.069 1.704.353 3.403.309 5.102-.047a10.358 10.358 0 0 0 2.756-1.002h.002c.131-.066.264-.132.197-.34-.281-.864-.558-1.728-.847-2.626v-.004l-.002-.003-.129-.401ZM94.37 42.295v.001l-.005.007c-.156.244-.313.488-.47.73l-.082-.002v-.014l.001-.014.001-.017.002-.035.001-.02a2.33 2.33 0 0 1 .014-.19c.178-1.22.274-2.451.286-3.684l-.023-11.199a2.19 2.19 0 0 0-.003-.099v-.025a1.534 1.534 0 0 1-.003-.076c-.054-.716-.554-1.192-1.237-1.16-.482.029-.966.029-1.449 0-.792-.058-1.333.433-1.363 1.3v21.246c-.003.216.014.433.05.646.103.565.491.915 1.057.956.22.015.44.013.66.01l.24-.001c.794-.013 1.076-.206 1.327-.952l.035-.104.023-.07.026-.08.002-.005v-.001c.128-.387.256-.774.44-1.14a17.957 17.957 0 0 1 1.645-2.612l.005-.008.005-.007.006-.012c.046-.074.093-.151.225-.137l.294.522.001.003.018.032.001.001c.235.419.472.84.711 1.26l.162.284c.314.556.629 1.113 1.031 1.615.513.636 1.115 1.152 1.899 1.412 1.004.332 2 .332 2.951-.182.491-.265.847-.665.871-1.253a4.444 4.444 0 0 0-.309-1.71c-.169-.458-.557-.649-1.041-.569-.214.03-.426.072-.635.13-.326.098-.573-.008-.799-.249a7.853 7.853 0 0 1-.74-.94c-.492-.723-.929-1.481-1.365-2.239v-.002h-.001c-.12-.209-.24-.417-.361-.624a5.747 5.747 0 0 0-.081-.136l-.002-.002c-.062-.102-.097-.158-.096-.214.001-.07.058-.139.185-.294l.032-.039.03-.036c.99-1.217 2.105-2.31 3.222-3.404l.002-.002.36-.353.159-.154c.174-.17.349-.339.51-.52.455-.513.49-1.014.139-1.6a6.216 6.216 0 0 0-.786-.969c-.834-.906-1.632-.907-2.455 0a49.24 49.24 0 0 0-4.276 5.4 71.014 71.014 0 0 0-1.045 1.598l-.001.001v.001ZM57.622 40.141v-8.955c-.001-.148-.002-.296.011-.444a1.14 1.14 0 0 1 .97-1.053c.71-.09 1.428-.09 2.139 0 .54.063.914.49.983 1.042.017.182.023.366.017.549v6.9a.168.168 0 0 0 .032.113l.002.003.003.004.003.003.002.002.005.005.003.004a.168.168 0 0 0 .125.046h.012c.058 0 .117 0 .175.002l.175.002h7.994c.43-.007.434-.007.434-.443v-6.6c0-.167 0-.333.006-.499.037-.614.434-1.078 1.047-1.143a9.298 9.298 0 0 1 2.043 0c.547.064.926.475.999 1.022.019.166.025.333.02.5v17.898c.006.167 0 .334-.02.5a1.162 1.162 0 0 1-1.108 1.03 24.04 24.04 0 0 1-1.899 0 1.13 1.13 0 0 1-1.082-1.05 5.282 5.282 0 0 1-.013-.55V42.33c0-.142-.058-.218-.2-.216h-8.3l-.077-.001c-.194-.002-.291-.003-.34.046-.048.048-.048.146-.047.343v5.561l.002.417.002.226v.371l-.003.236c-.018.869-.465 1.325-1.325 1.345-.483.012-.966.009-1.449 0-.894-.014-1.342-.462-1.343-1.367-.003-3.052-.002-6.102.002-9.151ZM80.17 36.378v5.496l.01-.003v5.1c.003.666.115 1.328.333 1.959a2.715 2.715 0 0 0 1.477 1.668c.48.22.996.273 1.51.282a4.417 4.417 0 0 0 2.877-.957c.53-.415.657-.885.417-1.506-.148-.389-.32-.768-.515-1.135-.239-.444-.563-.567-1.048-.432-.12.034-.236.078-.352.122l-.06.023-.031.012-.037.014-.026.009-.028.01-.026.01a2.68 2.68 0 0 1-.057.018l-.023.007-.018.006c-.256.078-.343.03-.38-.229a4.646 4.646 0 0 1-.031-.647v-9.493c.006-.25-.006-.499-.037-.747-.088-.586-.499-.95-1.087-.965a14.62 14.62 0 0 0-.57.002c-.293.004-.586.009-.877-.013-1.001-.077-1.448.61-1.42 1.39ZM84.598 31.678c.125-.314.187-.65.182-.987-.053-1.209-.863-2.539-2.594-2.52a2.53 2.53 0 0 0-2.548 2.578c.02 1.409 1.09 2.534 2.598 2.534a2.551 2.551 0 0 0 2.362-1.605Z" fill="#fff" />
    <path fill-rule="evenodd" clip-rule="evenodd" d="M110.79 19.086c-.857-.57-1.347-1.35-1.311-2.41.156-.07.302-.063.442-.056.044.002.086.004.128.004h9.142c.442 0 .456-.003.475-.423.07-1.487.024-2.967-.382-4.41-.436-1.558-1.216-2.897-2.646-3.735-1.963-1.15-4.072-1.311-6.216-.65-2.551.788-4.063 2.625-4.821 5.118-.463 1.521-.492 3.086-.25 4.652.185 1.2.589 2.32 1.318 3.306 1.114 1.508 2.647 2.349 4.445 2.738 2.504.54 4.96.302 7.381-.486.249-.083.293-.183.249-.428-.123-.678-.23-1.358-.338-2.04l-.098-.62c-.008-.05-.014-.1-.019-.15l-.005-.041-.001-.016-.013-.094c-.023-.134-.081-.215-.237-.15a2.12 2.12 0 0 1-.236.08c-1.408.43-2.836.726-4.32.636-.964-.058-1.877-.286-2.687-.825Zm-.959-5.289h3.415c.725-.001 1.45-.002 2.176.005.215.002.289-.066.283-.286a3.702 3.702 0 0 0-.126-.837c-.259-1.003-.858-1.734-1.858-2.047a3.401 3.401 0 0 0-2.207.048c-1.287.464-1.769 1.53-2.006 2.76-.067.345-.043.357.323.357ZM109.849 45.386a3.123 3.123 0 0 1-.275-1.28l.112.018h.001c.065.01.109.017.151.029 1.197.3 2.432.419 3.665.353 1.088-.066 2.145-.278 3.124-.778.897-.46 1.628-1.095 2.062-2.027a4.857 4.857 0 0 0 .088-3.884 4.838 4.838 0 0 0-2.792-2.7c-1.656-.611-3.358-.611-5.062-.211-2.478.587-4.116 2.09-4.847 4.54-.567 1.9-.688 3.842-.261 5.777.636 2.878 2.422 4.723 5.265 5.487 2.083.558 4.122.263 6.121-.471a3.746 3.746 0 0 0 1.534-1c.334-.373.474-.803.359-1.292a3.857 3.857 0 0 0-.675-1.436c-.303-.4-.829-.51-1.309-.33a3.2 3.2 0 0 0-.606.346 5.504 5.504 0 0 1-3.52.872c-.882-.074-1.696-.343-2.361-.957a3.132 3.132 0 0 1-.774-1.056Zm.326-4.376a7.05 7.05 0 0 0 2.254.229h.003c.221-.008.44-.014.655-.036.498-.048.987-.142 1.426-.4.54-.32.752-.835.612-1.445-.156-.669-.655-.922-1.255-1.043a4.415 4.415 0 0 0-1.733.013c-1.151.23-1.934.898-2.299 2.029-.162.504-.154.51.337.653ZM74.866 10.716c-.788 1.435-1.098 2.987-1.08 4.867.005.932.148 1.858.425 2.748 1.364 4.44 5.537 6.099 9.458 4.835 1.988-.64 3.327-2.052 4.118-3.952 1.005-2.417 1.027-4.899.206-7.369a6.782 6.782 0 0 0-2.758-3.627C83.531 7.1 81.663 6.823 79.69 7.194c-2.158.407-3.767 1.598-4.824 3.522Zm8.787 7.763c.519-1.007.68-2.077.689-3.03-.004-1.232-.136-2.28-.6-3.273-.41-.869-1.076-1.383-2.018-1.521-1.364-.2-2.495.308-3.12 1.535-.468.918-.641 1.891-.655 2.9-.017 1.192.103 2.362.667 3.444.245.466.56.876 1.034 1.12 1.205.624 3.133.515 4.003-1.175ZM34.891 39.906c.007.543-.218.88-.613 1.088-.396.207-.81.195-1.172-.094-.325-.26-.64-.53-.956-.801l-.305-.262-11.94-10.169a2.3 2.3 0 0 1-.734-1.1c-1.688-5.345-3.38-10.688-5.075-16.03a2.923 2.923 0 0 1-.156-.629c-.042-.482.144-.854.557-1.088a1.077 1.077 0 0 1 1.182.04c.137.094.268.198.392.31 4.206 3.584 8.415 7.168 12.626 10.75.5.41.868.962 1.055 1.583 1.65 5.27 3.312 10.537 4.984 15.798l.049.15c.055.17.108.33.106.454Zm-8.014-15.643L21.9 27.554l-.401-1.263c-.951-2.994-1.89-5.948-2.828-8.953.413.186 7.703 6.355 8.207 6.925Z" fill="#fff" />
    <path d="m38.133 25.676-.002-.002c-.254-.299-.505-.594-.758-.888-1.25-1.45-2.5-2.901-3.753-4.352-.438-.506-.6-1.075-.369-1.715.506-1.4 2.15-1.4 2.844-.6.472.54.941 1.081 1.41 1.623l4.276 4.955c.492.567.72 1.192.465 1.934a2.1 2.1 0 0 1-.415.677l-4.86 5.64c-.304.374-.627.732-.967 1.074-.8.752-1.931.622-2.558-.268-.39-.552-.393-1.266.006-1.876.212-.323.47-.61.728-.896.099-.11.198-.22.294-.332 1.007-1.174 2.018-2.344 3.04-3.528l.003-.003.928-1.075-.313-.368ZM13.675 17.59c1.358 0 2.15 1.341 1.524 2.483a3.513 3.513 0 0 1-.444.6 8020.936 8020.936 0 0 0-4.338 5.03c-.291.337-.29.34.007.686 1.5 1.74 3.002 3.478 4.505 5.216.516.592.636 1.245.311 1.943a1.664 1.664 0 0 1-1.975.89 1.66 1.66 0 0 1-.675-.39c-.33-.33-.64-.677-.933-1.04-.513-.593-1.023-1.187-1.534-1.782l-.005-.005a401.702 401.702 0 0 0-3.296-3.805c-.723-.82-.786-1.867-.02-2.734 1.349-1.53 2.675-3.077 4.002-4.623l.01-.012 1.473-1.715c.384-.439.82-.777 1.388-.742Z" fill="#fff" />
    <path fill-rule="evenodd" clip-rule="evenodd" d="M24.28 1.932c13.31 0 24.182 10.821 24.14 24.11-.042 13.642-11.1 24.104-24.148 24.088C10.952 50.115.152 39.326.162 26.009.17 12.995 10.639 2.013 24.28 1.932Zm.017 3.013c11.65.01 21.138 9.499 21.112 21.115-.027 11.655-9.492 21.073-21.155 21.058-11.662-.015-21.098-9.47-21.079-21.127.02-11.615 9.494-21.056 21.122-21.046Z" fill="#fff" />
</svg>