<svg width="100%" height="100%" viewBox="0 0 219 47" fill="none" xmlns="http://www.w3.org/2000/svg">
    <path d="M27.736 42.577a4.74 4.74 0 0 0-2.346 0l-10.136 2.596c1.13.828 2.551 1.326 4.304 1.326h14.009c1.752 0 3.173-.498 4.303-1.326l-10.133-2.596ZM35.617 32.283a1.632 1.632 0 1 0 0-3.264 1.632 1.632 0 0 0 0 3.264ZM4.864 25.87a5.966 5.966 0 0 1-2.539-5.203C2.995 8.561 4.872 4.29 6.327 2.838c.465-.463 1.397-.636 1.993-.534 2.975.518 5.169 2.663 6.345 6.201.7 2.11.844 4.094.874 4.858.42-.16.849-.302 1.287-.418-.58-9.36-5.804-11.762-8.65-12.372A3.275 3.275 0 0 0 4.895 1.77C1.6 6.074.842 15.876.695 21.682a6.286 6.286 0 0 0 4.129 6.067l2.061.753v-1.148l-2.02-1.483Z" fill="#fff" />
    <path d="M14.108 8.673c-1.12-3.362-3.102-5.313-5.887-5.798-.436-.076-1.179.07-1.482.373-1.133 1.13-3.136 4.898-3.831 17.449a5.381 5.381 0 0 0 2.289 4.692l1.688 1.17v-.675c0-5.496 3.33-10.228 8.078-12.29-.01-.464-.097-2.65-.855-4.92ZM46.242 26.578l1.715-1.189a5.381 5.381 0 0 0 2.289-4.692c-.694-12.55-2.698-16.318-3.832-17.449-.303-.303-1.046-.449-1.481-.373-2.787.485-4.767 2.436-5.887 5.798-.764 2.29-.847 4.492-.856 4.933 4.735 2.068 8.052 6.792 8.052 12.278v.694Z" fill="#fff" />
    <path d="M52.433 21.683c-.148-5.809-.904-15.609-4.2-19.914a3.275 3.275 0 0 0-3.28-1.196c-2.847.612-8.073 3.013-8.651 12.371.447.12.886.264 1.312.429.03-.756.17-2.75.875-4.867 1.175-3.54 3.37-5.684 6.344-6.202.596-.104 1.528.071 1.993.534 1.455 1.451 3.332 5.723 4.002 17.83a5.967 5.967 0 0 1-2.54 5.203l-2.046 1.503v1.13l2.061-.754a6.288 6.288 0 0 0 4.13-6.067ZM34.67 37.769a2.338 2.338 0 0 1-2.34-2.338v-.452a1.936 1.936 0 0 0-1.906-1.981l-.555-.01a3.354 3.354 0 0 1-3.306-3.353V13.223H20.28c-6.995 0-12.666 5.67-12.666 12.665v14.305c0 1.502.667 2.947 1.862 3.858a4.69 4.69 0 0 0 4.038.818l11.695-2.996c.325-.083.657-.136.99-.158v-2.67h-.02c0-.731-.594-1.324-1.325-1.324h-.998c-.763 0-1.406-.625-1.409-1.389v-.072c.02-.896.794-1.63 1.69-1.63h4.85c.896 0 1.67.734 1.69 1.63v.072c-.003.764-.645 1.389-1.409 1.389h-.998c-.731 0-1.324.593-1.324 1.324h-.02v2.67c.333.022.665.075.989.158l11.694 2.996a4.696 4.696 0 0 0 4.037-.818c1.196-.91 1.863-2.356 1.863-3.86a2.424 2.424 0 0 0-2.423-2.422H34.67Zm-17.161-5.484a1.632 1.632 0 1 1 0-3.263 1.632 1.632 0 0 1 0 3.263Z" fill="#fff" />
    <path d="M35.619 34.376a3.73 3.73 0 0 1-3.725-3.725 3.73 3.73 0 0 1 3.725-3.725 3.73 3.73 0 0 1 3.725 3.725 3.73 3.73 0 0 1-3.725 3.725Zm0-6.866a3.146 3.146 0 0 0-3.143 3.142 3.145 3.145 0 0 0 3.143 3.143 3.145 3.145 0 0 0 3.142-3.143 3.145 3.145 0 0 0-3.142-3.142Z" fill="#fff" />
    <path d="M39.052 30.363v.583h6.171v6.296h.583v-6.879h-6.754ZM31.382 13.223h-.583v6.825h-4.236v.583h8.762v6.59h.583v-7.173h-4.526v-6.825ZM81.585 34.188c-2.925 0-5.234-.945-6.93-2.836-1.685-1.9-2.528-4.489-2.528-7.767 0-3.278.843-5.863 2.529-7.753 1.694-1.89 4.004-2.836 6.929-2.836 2.384 0 4.396.712 6.035 2.137 1.648 1.416 2.551 3.223 2.71 5.42h-4.107c-.205-1.164-.731-2.095-1.579-2.794-.838-.698-1.858-1.047-3.06-1.047-1.583 0-2.835.614-3.757 1.844-.922 1.23-1.383 2.906-1.383 5.029 0 2.123.46 3.805 1.383 5.043.922 1.23 2.179 1.844 3.772 1.844 1.21 0 2.235-.33 3.073-.992.838-.66 1.36-1.546 1.565-2.654h4.107c-.177 2.18-1.076 3.953-2.696 5.323-1.612 1.36-3.633 2.04-6.063 2.04ZM98.937 30.682c1.08 0 1.918-.41 2.515-1.23.596-.829.894-1.993.894-3.492 0-1.48-.303-2.636-.908-3.465-.596-.829-1.43-1.243-2.501-1.243-1.08 0-1.919.414-2.515 1.243-.596.83-.894 1.984-.894 3.465 0 1.5.294 2.663.88 3.492.596.82 1.44 1.23 2.529 1.23Zm5.56 1.187c-1.341 1.425-3.194 2.138-5.56 2.138-2.366 0-4.224-.713-5.574-2.138-1.341-1.425-2.012-3.395-2.012-5.91 0-2.495.675-4.456 2.026-5.88 1.36-1.435 3.213-2.152 5.56-2.152 2.347 0 4.196.717 5.546 2.151 1.36 1.425 2.04 3.386 2.04 5.882 0 2.514-.676 4.484-2.026 5.91ZM113.649 33.909c-1.937 0-3.469-.713-4.596-2.138-1.118-1.425-1.677-3.366-1.677-5.825 0-2.45.559-4.382 1.677-5.798 1.127-1.425 2.659-2.137 4.596-2.137 1.043 0 1.97.242 2.78.726a4.456 4.456 0 0 1 1.816 1.984h.238v-8.34h4.065v21.29h-3.94v-2.416h-.251a4.533 4.533 0 0 1-1.858 1.955c-.829.466-1.779.699-2.85.699Zm3.939-11.26c-.624-.82-1.476-1.23-2.556-1.23s-1.933.406-2.557 1.216c-.614.801-.922 1.91-.922 3.325 0 1.425.308 2.542.922 3.353.615.8 1.467 1.201 2.557 1.201 1.09 0 1.942-.4 2.556-1.201.624-.81.936-1.923.936-3.34 0-1.405-.312-2.514-.936-3.324ZM131.714 21.043c-.941 0-1.719.302-2.333.908-.606.605-.946 1.406-1.02 2.402h6.566c-.047-1.024-.359-1.83-.936-2.417-.568-.596-1.327-.893-2.277-.893Zm3.297 8.242h3.786c-.308 1.462-1.09 2.617-2.347 3.464-1.248.838-2.813 1.258-4.694 1.258-2.347 0-4.177-.699-5.491-2.096-1.313-1.406-1.969-3.362-1.969-5.867 0-2.506.661-4.485 1.983-5.938 1.323-1.452 3.13-2.179 5.421-2.179 2.272 0 4.042.685 5.308 2.054 1.276 1.369 1.914 3.278 1.914 5.727v1.244h-10.575v.21c.028 1.145.354 2.053.978 2.723.633.662 1.481.992 2.542.992.801 0 1.472-.135 2.012-.405.54-.28.917-.675 1.132-1.187ZM146.104 30.85c.941 0 1.728-.266 2.361-.797.634-.53.95-1.187.95-1.97v-1.131l-3.115.195c-1.732.121-2.598.74-2.598 1.858 0 .568.219 1.02.656 1.355.447.326 1.029.49 1.746.49Zm-1.341 3.059c-1.49 0-2.705-.424-3.646-1.271-.931-.848-1.397-1.97-1.397-3.367 0-1.388.512-2.478 1.537-3.27 1.034-.8 2.51-1.257 4.428-1.368l3.73-.224v-1.257c0-.643-.223-1.136-.67-1.48-.447-.355-1.09-.532-1.928-.532-1.509 0-2.435.475-2.78 1.425h-3.744c.13-1.425.801-2.552 2.012-3.38 1.22-.839 2.798-1.258 4.735-1.258 2.031 0 3.6.457 4.708 1.37 1.118.912 1.677 2.197 1.677 3.855v10.52h-3.94V31.66h-.251c-.401.707-.997 1.262-1.788 1.662-.792.391-1.686.587-2.683.587ZM155.703 33.671V18.262h3.94v2.515h.251c.317-.885.853-1.579 1.607-2.082.764-.512 1.648-.768 2.654-.768 1.071 0 1.97.252 2.697.755.735.493 1.257 1.192 1.564 2.095h.252c.363-.866.959-1.555 1.788-2.068.829-.521 1.779-.782 2.85-.782 1.536 0 2.752.466 3.646 1.397.894.931 1.341 2.189 1.341 3.772v10.575h-4.065v-9.5c0-1.825-.857-2.737-2.571-2.737-.819 0-1.476.26-1.97.782-.493.521-.74 1.197-.74 2.026v9.43h-3.912v-9.668c0-.81-.223-1.439-.67-1.886-.447-.456-1.071-.684-1.872-.684-.792 0-1.444.279-1.956.838-.512.559-.768 1.266-.768 2.123v9.276h-4.066ZM180.558 33.671V18.262h4.065v15.41h-4.065Zm2.039-17.56c-.726 0-1.308-.19-1.746-.573-.438-.382-.657-.875-.657-1.48 0-.615.219-1.109.657-1.481.438-.382 1.02-.573 1.746-.573.727 0 1.309.19 1.747.573.437.372.656.866.656 1.48 0 .606-.223 1.1-.67 1.481-.438.382-1.016.573-1.733.573ZM196.457 29.061c.624-.791.936-1.867.936-3.227 0-1.36-.317-2.435-.95-3.227-.624-.791-1.481-1.187-2.57-1.187-1.09 0-1.942.395-2.557 1.187-.605.782-.908 1.853-.908 3.213 0 1.37.303 2.45.908 3.241.606.782 1.458 1.174 2.557 1.174s1.96-.392 2.584-1.174Zm-2.64 10.45c-2.03 0-3.684-.415-4.96-1.244-1.266-.82-1.965-1.909-2.095-3.269h4.023c.103.475.429.853.978 1.132.55.28 1.262.42 2.138.42 1.089 0 1.937-.243 2.542-.727.606-.475.908-1.146.908-2.012v-2.85h-.251c-.876 1.658-2.422 2.487-4.638 2.487-1.919 0-3.437-.685-4.554-2.054-1.118-1.378-1.677-3.231-1.677-5.56 0-2.393.564-4.293 1.691-5.7 1.136-1.415 2.677-2.123 4.624-2.123 1.043 0 1.979.242 2.808.726a4.553 4.553 0 0 1 1.871 1.998h.252v-2.473h3.939v15.353c0 1.807-.684 3.241-2.053 4.303-1.369 1.062-3.218 1.593-5.546 1.593ZM210.61 30.682c1.081 0 1.919-.41 2.515-1.23.596-.829.894-1.993.894-3.492 0-1.48-.303-2.636-.908-3.465-.596-.829-1.43-1.243-2.501-1.243-1.08 0-1.918.414-2.514 1.243-.596.83-.894 1.984-.894 3.465 0 1.5.293 2.663.88 3.492.596.82 1.439 1.23 2.528 1.23Zm5.56 1.187c-1.341 1.425-3.194 2.138-5.56 2.138-2.365 0-4.223-.713-5.574-2.138-1.341-1.425-2.011-3.395-2.011-5.91 0-2.495.675-4.456 2.025-5.88 1.36-1.435 3.213-2.152 5.56-2.152 2.347 0 4.196.717 5.546 2.151 1.36 1.425 2.04 3.386 2.04 5.882 0 2.514-.675 4.484-2.026 5.91Z" fill="#fff" />
</svg>