<svg width="250" height="50" viewBox="0 0 250 50" fill="none" xmlns="http://www.w3.org/2000/svg">
    <path fill-rule="evenodd" clip-rule="evenodd" d="M14 33.15V16.622c0-.65.341-1.262.906-1.585l13.81-7.81C29.014 7.068 29.51 7 29.85 7c.34 0 .863.084 1.132.226l13.697 7.811c.271.16.64.53.793.793l-.574.325.574-.324c.158.272.227.467.227.792v16.528c0 .65-.23 1.15-.793 1.472l-14.264 8.15c-.278.16-.482.227-.792.227V25.203a.86.86 0 0 0 0 .023v17.773c-.31 0-.628-.067-.906-.226l-13.924-8.038C14.454 34.413 14 33.8 14 33.15Zm2.038-13.245v6.453c0 .453.113.68.566.906l4.754 2.716c.453.227.566.567.566.906v4.528c0 .453.114.68.566.906l4.755 2.717c.453.226.792.113.792-.34V26.584c0-.34-.113-.679-.566-.905l-10.64-6.113c-.34-.227-.793-.113-.793.34Zm18.565-7.698-4.188 2.378c-.34.226-.793.226-1.132 0l-4.189-2.378a.938.938 0 0 0-.906 0l-5.207 2.944c-.453.226-.453.679 0 .905l10.415 6c.278.16.627.16.905 0l10.415-6c.34-.226.453-.679 0-.905l-5.207-2.944a.938.938 0 0 0-.906 0Zm3.17 23.208c0 .453-.17.68-.566.906l-4.754 2.717c-.34.226-.793.113-.793-.34V26.585c0-.324.285-.744.566-.905l10.868-6.226c.302-.174.566.104.566.452v6.453c0 .334-.158.635-.453.792l-4.868 2.604c-.295.158-.566.458-.566.793v4.867Z" fill="#fff" />
    <path d="M78.355 27.808h-3.384c-.492 3.066-2.546 4.83-5.38 4.83-3.761 0-6.22-2.921-6.22-7.578 0-4.6 2.372-7.58 6.017-7.58 2.95 0 4.889 1.736 5.438 4.86h3.385c-.666-4.57-4.34-7.55-8.939-7.55-5.525 0-9.343 4.57-9.343 10.27 0 5.872 3.905 10.269 9.43 10.269 4.6 0 8.302-2.95 8.996-7.521Z" fill="#fff" />
    <path fill-rule="evenodd" clip-rule="evenodd" d="M93.885 27.808c0-3.905-2.69-7.521-7.087-7.521s-7.087 3.616-7.087 7.52c0 3.906 2.69 7.522 7.087 7.522s7.087-3.616 7.087-7.521Zm-10.847 0c0-3.096 1.36-5.178 3.76-5.178 2.43 0 3.79 2.082 3.79 5.178 0 3.066-1.36 5.178-3.79 5.178-2.4 0-3.76-2.112-3.76-5.178ZM106.19 32.002h-.087c-.694 1.996-2.372 3.327-4.57 3.327-3.935 0-6.075-3.471-6.075-7.521s2.227-7.521 6.075-7.521c2.198 0 3.876 1.301 4.57 3.297h.087V15.08h3.095v19.96h-3.095v-3.038Zm-3.645-9.372c-2.401 0-3.76 2.082-3.76 5.178 0 3.066 1.359 5.178 3.76 5.178 2.43 0 3.761-2.112 3.761-5.178 0-3.096-1.331-5.178-3.761-5.178ZM124.847 30.556h-3.153c-.347 1.157-1.157 2.43-3.038 2.43-2.198 0-3.731-1.533-3.876-4.166h10.327c.434-5.033-2.401-8.533-6.711-8.533-4.31 0-6.769 3.529-6.769 7.52 0 3.993 2.517 7.522 6.827 7.522 3.529 0 5.785-1.91 6.393-4.773Zm-6.451-7.926c2.112 0 3.355 1.504 3.558 3.847h-7.145c.202-2.343 1.475-3.847 3.587-3.847Z" fill="#fff" />
    <path d="M137.313 23.555c3.76.868 5.641 2.835 5.641 5.988 0 3.327-3.24 5.786-7.869 5.786-5.293 0-8.157-3.703-8.475-7.319h3.384c.203 2.604 2.314 4.628 5.12 4.628 2.546 0 4.426-1.099 4.426-2.95 0-1.62-1.215-2.488-3.789-3.095l-2.893-.666c-3.905-.925-5.843-2.748-5.843-5.525 0-3.355 3.297-5.612 7.318-5.612 5.091 0 7.695 2.777 8.042 6.22h-3.384c-.261-2.372-2.257-3.53-4.6-3.53-2.285 0-3.934.984-3.934 2.69 0 1.36 1.012 1.997 3.963 2.691l2.893.694Z" fill="#fff" />
    <path fill-rule="evenodd" clip-rule="evenodd" d="M153.848 32.205h.087v2.834h3.037v-8.88c0-3.905-2.343-5.872-6.016-5.872-3.732 0-5.988 2.053-6.104 4.86h3.153c.087-1.62 1.128-2.517 2.893-2.517 1.822 0 2.921 1.012 2.921 2.95v.434l-3.673.376c-3.211.347-5.815 1.447-5.815 4.426 0 2.633 2.112 4.513 5.12 4.513 2.17 0 3.79-1.128 4.397-3.124Zm-6.19-1.36c0-1.389 1.099-2.083 3.008-2.285l3.153-.347v.491c0 2.748-1.301 4.282-3.558 4.282-1.388 0-2.603-.781-2.603-2.141Z" fill="#fff" />
    <path d="M163.139 26.361v8.678h-3.153V20.576h3.066v2.835h.058c.608-2.025 2.112-3.124 4.224-3.124 3.182 0 4.744 2.17 4.744 5.351v9.401h-3.153v-8.475c0-2.69-.955-3.905-2.893-3.905-1.938 0-2.893 1.33-2.893 3.702Z" fill="#fff" />
    <path fill-rule="evenodd" clip-rule="evenodd" d="M184.975 32.002h.087v3.037h3.095V15.08h-3.095v8.505h-.087c-.694-1.996-2.372-3.297-4.571-3.297-3.847 0-6.074 3.47-6.074 7.52 0 4.05 2.14 7.522 6.074 7.522 2.199 0 3.877-1.33 4.571-3.327Zm-7.319-4.194c0-3.096 1.36-5.178 3.761-5.178 2.43 0 3.76 2.082 3.76 5.178 0 3.066-1.33 5.178-3.76 5.178-2.401 0-3.761-2.112-3.761-5.178ZM199.061 20.287c3.848 0 6.075 3.47 6.075 7.52 0 4.05-2.141 7.522-6.075 7.522-2.198 0-3.876-1.33-4.57-3.327h-.087v3.037h-3.095V15.08h3.095v8.505h.087c.694-1.996 2.372-3.297 4.57-3.297Zm-1.012 2.343c-2.43 0-3.761 2.082-3.761 5.178 0 3.066 1.331 5.178 3.761 5.178 2.401 0 3.76-2.112 3.76-5.178 0-3.096-1.359-5.178-3.76-5.178ZM220.899 27.808c0-3.905-2.69-7.521-7.087-7.521s-7.087 3.616-7.087 7.52c0 3.906 2.69 7.522 7.087 7.522s7.087-3.616 7.087-7.521Zm-10.847 0c0-3.096 1.359-5.178 3.76-5.178 2.43 0 3.79 2.082 3.79 5.178 0 3.066-1.36 5.178-3.79 5.178-2.401 0-3.76-2.112-3.76-5.178Z" fill="#fff" />
    <path d="m227.959 29.428-3.848 5.611h-3.558l5.554-7.781-4.83-6.682h3.558l3.124 4.512 3.124-4.512h3.529l-4.802 6.653 5.525 7.81h-3.529l-3.847-5.611Z" fill="#fff" />
</svg>