<svg width="198" height="32" fill="none" viewBox="0 0 198 32" xmlns="http://www.w3.org/2000/svg">
    <path fill-rule="evenodd" clip-rule="evenodd" d="M14.5 16.264V32c.274 0 .454-.06.7-.2l12.6-7.2c.497-.285.7-.727.7-1.3V8.7c0-.288-.06-.46-.2-.7l-13.397 7.57a.8.8 0 0 0-.403.694Zm7 9.036c0 .4-.15.6-.5.8l-4.2 2.4c-.3.2-.7.1-.7-.3V17.5c0-.286.252-.657.5-.8l9.6-5.5c.267-.153.5.092.5.4v5.7a.77.77 0 0 1-.4.7L22 20.3c-.26.14-.5.404-.5.7v4.3Z" fill="#fff" />
    <path fill-rule="evenodd" clip-rule="evenodd" d="M.5 23.245V8.553c0-.577.304-1.122.806-1.408L13.594.2C13.857.061 14.299 0 14.6 0c.302 0 .768.075 1.007.201l12.187 6.944c.241.142.569.47.705.704l-13.496 7.648a.81.81 0 0 0-.403.704V32c-.276 0-.558-.06-.806-.201L1.406 24.654C.904 24.367.5 23.823.5 23.245Zm1.813-11.773v5.736c0 .402.1.603.504.805l4.23 2.415c.403.201.503.503.503.805v4.025c0 .402.101.604.504.805l4.23 2.415c.403.201.705.1.705-.302V17.409c0-.302-.1-.604-.503-.805L3.018 11.17c-.302-.201-.705-.1-.705.302Zm16.518-6.843-3.727 2.113a.915.915 0 0 1-1.007 0L10.371 4.63a.835.835 0 0 0-.806 0L4.932 7.245c-.403.202-.403.604 0 .805l9.266 5.334a.816.816 0 0 0 .806 0L24.27 8.05c.302-.201.403-.603 0-.805L19.637 4.63a.835.835 0 0 0-.806 0Z" fill="#fff" />
    <path d="M57.888 18.409h-3.01c-.437 2.687-2.264 4.233-4.785 4.233-3.345 0-5.532-2.56-5.532-6.642 0-4.031 2.11-6.642 5.352-6.642 2.624 0 4.348 1.52 4.836 4.259h3.01C57.168 9.61 53.9 7 49.81 7c-4.913 0-8.309 4.006-8.309 9 0 5.146 3.473 9 8.387 9 4.09 0 7.383-2.586 8-6.591ZM71.7 18.409c0-3.423-2.393-6.592-6.303-6.592s-6.303 3.169-6.303 6.591c0 3.423 2.392 6.592 6.303 6.592 3.91 0 6.303-3.169 6.303-6.591Zm-9.648 0c0-2.713 1.21-4.539 3.345-4.539 2.16 0 3.37 1.826 3.37 4.539 0 2.687-1.21 4.538-3.37 4.538-2.136 0-3.345-1.851-3.345-4.538ZM82.566 22.084h.077v2.663h2.753V7.254h-2.753v7.453h-.077c-.618-1.75-2.11-2.89-4.065-2.89-3.422 0-5.403 3.042-5.403 6.591 0 3.55 1.904 6.592 5.403 6.592 1.955 0 3.447-1.166 4.065-2.916Zm-6.51-3.675c0-2.713 1.21-4.539 3.345-4.539 2.161 0 3.345 1.826 3.345 4.539 0 2.687-1.184 4.538-3.345 4.538-2.135 0-3.344-1.851-3.344-4.538ZM99.236 20.817H96.43c-.308 1.014-1.029 2.13-2.7 2.13-1.956 0-3.32-1.344-3.448-3.651h9.184c.386-4.412-2.135-7.48-5.968-7.48-3.834 0-6.02 3.094-6.02 6.592 0 3.499 2.238 6.592 6.071 6.592 3.139 0 5.145-1.673 5.686-4.183Zm-5.737-6.947c1.878 0 2.984 1.319 3.164 3.372h-6.355c.18-2.053 1.313-3.372 3.19-3.372ZM115.339 19.93c0-2.764-1.672-4.488-5.017-5.248l-2.572-.609c-2.624-.608-3.525-1.166-3.525-2.357 0-1.496 1.467-2.358 3.499-2.358 2.084 0 3.859 1.014 4.091 3.093h3.01C114.516 9.434 112.201 7 107.673 7c-3.576 0-6.509 1.977-6.509 4.918 0 2.434 1.723 4.031 5.197 4.843l2.572.583c2.29.532 3.37 1.293 3.37 2.712 0 1.623-1.672 2.586-3.936 2.586-2.495 0-4.373-1.774-4.553-4.056h-3.01c.283 3.169 2.83 6.414 7.538 6.414 4.116 0 6.997-2.155 6.997-5.07ZM125.029 22.262h.077v2.485h2.701v-7.784c0-3.422-2.084-5.146-5.351-5.146-3.319 0-5.326 1.8-5.428 4.26h2.804c.077-1.42 1.003-2.207 2.572-2.207 1.621 0 2.599.888 2.599 2.586v.38l-3.267.33c-2.856.304-5.172 1.268-5.172 3.88 0 2.306 1.878 3.954 4.554 3.954 1.93 0 3.37-.989 3.911-2.738Zm-5.506-1.192c0-1.216.978-1.825 2.676-2.002l2.804-.305v.431c0 2.409-1.158 3.753-3.165 3.753-1.234 0-2.315-.685-2.315-1.877ZM133.291 24.747V17.14c0-2.079.849-3.245 2.573-3.245s2.573 1.065 2.573 3.422v7.428h2.804v-8.239c0-2.789-1.389-4.69-4.219-4.69-1.878 0-3.216.963-3.756 2.738h-.052V12.07h-2.727v12.677h2.804ZM152.711 22.084h.078v2.663h2.752V7.254h-2.752v7.453h-.078c-.617-1.75-2.109-2.89-4.064-2.89-3.422 0-5.403 3.042-5.403 6.591 0 3.55 1.904 6.592 5.403 6.592 1.955 0 3.447-1.166 4.064-2.916Zm-6.509-3.675c0-2.713 1.21-4.539 3.345-4.539 2.161 0 3.344 1.826 3.344 4.539 0 2.687-1.183 4.538-3.344 4.538-2.135 0-3.345-1.851-3.345-4.538ZM170.642 18.409c0-3.55-1.981-6.592-5.403-6.592-1.955 0-3.447 1.14-4.065 2.89h-.077V7.254h-2.753v17.493h2.753v-2.663h.077c.618 1.75 2.11 2.916 4.065 2.916 3.499 0 5.403-3.042 5.403-6.591Zm-9.648 0c0-2.713 1.184-4.539 3.345-4.539 2.135 0 3.344 1.826 3.344 4.539 0 2.687-1.209 4.538-3.344 4.538-2.161 0-3.345-1.851-3.345-4.538ZM184.661 18.409c0-3.423-2.392-6.592-6.303-6.592-3.91 0-6.303 3.169-6.303 6.591 0 3.423 2.393 6.592 6.303 6.592 3.911 0 6.303-3.169 6.303-6.591Zm-9.647 0c0-2.713 1.209-4.539 3.344-4.539 2.161 0 3.371 1.826 3.371 4.539 0 2.687-1.21 4.538-3.371 4.538-2.135 0-3.344-1.851-3.344-4.538Z" fill="#fff" />
    <path d="m187.518 24.747 3.422-4.919 3.421 4.919h3.139l-4.914-6.846 4.271-5.83h-3.139l-2.778 3.954-2.779-3.955h-3.164l4.296 5.857-4.939 6.82h3.164Z" fill="#fff" />
</svg>