<svg width="250" height="50" viewBox="0 0 250 50" fill="none" xmlns="http://www.w3.org/2000/svg">
    <path fill-rule="evenodd" clip-rule="evenodd" d="M41.916 24.69 46 12h6l4.083 12.69L57.4 20.6h6l5.6 17.4h-6l-2.6-8.078-1.316 4.089h-6L49 21.32l-4.083 12.69h-6L37.6 29.92 35 38h-6l5.6-17.4h6l1.316 4.09ZM94.02 35.22c-1.465 1.375-3.527 2.271-6.486 2.271-6.008 0-10.282-4.633-10.282-11.059 0-6.336 3.946-11.178 10.252-11.178 5.26 0 8.37 3.138 8.817 7.203h-4.304c-.388-2.152-2.002-3.557-4.513-3.557-3.945 0-5.828 3.288-5.828 7.532 0 4.364 2.271 7.503 5.858 7.503 2.54 0 4.334-1.525 4.603-3.767h4.244a7.568 7.568 0 0 1-2.361 5.052Zm20.877-5.829c0 4.573-3.258 8.1-8.011 8.1-4.752 0-8.01-3.527-8.01-8.1 0-4.573 3.258-8.1 8.01-8.1 4.753 0 8.011 3.527 8.011 8.1Zm-11.896 0c0 2.99 1.375 4.992 3.885 4.992 2.481 0 3.886-2.003 3.886-4.992 0-2.988-1.405-5.02-3.886-5.02-2.51 0-3.885 2.032-3.885 5.02Zm21.616 4.693c-2.092 0-3.258-1.734-3.258-4.693 0-2.839 1.136-4.812 3.378-4.812 2.6 0 3.556 1.973 3.556 4.902 0 2.81-1.255 4.603-3.676 4.603Zm-.897 3.407c2.152 0 3.677-.986 4.573-2.45h.06v2.002h3.916v-21.37h-4.065v7.89h-.09c-.837-1.285-2.182-2.271-4.334-2.271-3.826 0-6.546 3.317-6.546 8.1 0 4.96 2.631 8.1 6.486 8.1Zm26.524-5.021c-.568 2.72-2.989 5.021-6.934 5.021-5.081 0-7.951-3.556-7.951-8.13 0-4.543 3.079-8.07 7.562-8.07 4.932 0 7.562 3.767 7.562 9.236h-11.119c.299 2.361 1.614 3.826 3.916 3.826 1.584 0 2.51-.717 2.959-1.883h4.005Zm-4.005-4.752c-.12-1.943-1.405-3.288-3.258-3.288-2.152 0-3.198 1.285-3.557 3.288h6.815Zm13.866 9.325h4.333v-9.415h8.399v9.415h4.334v-21.37h-4.334v8.368h-8.399v-8.369h-4.333v21.37Zm23.243-17.096c-1.255 0-2.271-.927-2.271-2.242 0-1.285 1.016-2.212 2.271-2.212s2.272.927 2.272 2.212c0 1.315-1.017 2.242-2.272 2.242Zm2.033 1.763v15.333h-4.065V21.71h4.065Zm13.917 15.333h4.931l-6.336-9.505 5.649-5.828h-4.872l-5.44 5.798V15.672h-4.035v21.37h4.035v-5.17l1.764-1.823 4.304 6.994Zm20.496-4.573c-.568 2.72-2.989 5.021-6.934 5.021-5.082 0-7.951-3.556-7.951-8.13 0-4.543 3.079-8.07 7.562-8.07 4.932 0 7.562 3.767 7.562 9.236h-11.119c.299 2.361 1.614 3.826 3.916 3.826 1.584 0 2.51-.717 2.959-1.883h4.005Zm-4.005-4.752c-.12-1.943-1.405-3.288-3.258-3.288-2.152 0-3.198 1.285-3.557 3.288h6.815Z" fill="#fff" />
</svg>