<svg width="100%" height="100%" viewBox="0 0 242 34" fill="none" xmlns="http://www.w3.org/2000/svg">
    <path fill-rule="evenodd" clip-rule="evenodd" d="M16.565 16.607 21.725.574h7.58l5.16 16.033 1.662-5.166h7.58l7.076 21.983h-7.58l-3.285-10.206-1.663 5.166h-7.58l-5.16-16.033-5.16 16.032v.001h-7.58l-1.663-5.166-3.285 10.206H.247L7.32 11.441h7.58l1.664 5.166ZM82.396 29.91c-1.85 1.737-4.456 2.87-8.194 2.87-7.59 0-12.99-5.853-12.99-13.972 0-8.006 4.984-14.123 12.952-14.123 6.646 0 10.574 3.965 11.14 9.1h-5.438c-.49-2.718-2.53-4.493-5.702-4.493-4.985 0-7.364 4.154-7.364 9.516 0 5.514 2.87 9.479 7.402 9.479 3.21 0 5.475-1.926 5.815-4.759h5.363c-.151 2.38-1.171 4.683-2.984 6.382Zm26.377-7.363c0 5.777-4.116 10.233-10.12 10.233-6.005 0-10.121-4.456-10.121-10.233 0-5.778 4.116-10.234 10.12-10.234 6.005 0 10.121 4.456 10.121 10.234Zm-15.03 0c0 3.776 1.737 6.306 4.91 6.306 3.134 0 4.909-2.53 4.909-6.306 0-3.777-1.775-6.345-4.91-6.345-3.172 0-4.909 2.568-4.909 6.345Zm27.311 5.928c-2.643 0-4.116-2.19-4.116-5.928 0-3.588 1.435-6.08 4.268-6.08 3.285 0 4.493 2.492 4.493 6.193 0 3.55-1.586 5.815-4.645 5.815Zm-1.132 4.305c2.719 0 4.644-1.246 5.777-3.096h.076v2.53h4.947v-27h-5.136v9.969h-.113c-1.058-1.624-2.757-2.87-5.476-2.87-4.834 0-8.27 4.191-8.27 10.234 0 6.268 3.323 10.233 8.195 10.233Zm33.511-6.344c-.717 3.437-3.776 6.344-8.761 6.344-6.42 0-10.045-4.493-10.045-10.271 0-5.74 3.89-10.196 9.554-10.196 6.231 0 9.554 4.758 9.554 11.669h-14.048c.378 2.983 2.039 4.833 4.947 4.833 2.002 0 3.172-.906 3.739-2.379h5.06Zm-5.06-6.004c-.151-2.455-1.775-4.154-4.116-4.154-2.719 0-4.041 1.624-4.494 4.154h8.61Zm17.519 11.782h5.475V20.319h10.612v11.896h5.476v-27h-5.476v10.573h-10.612V5.214h-5.475v27.001Zm29.367-21.6c-1.586 0-2.87-1.171-2.87-2.833 0-1.624 1.284-2.794 2.87-2.794s2.87 1.17 2.87 2.794c0 1.662-1.284 2.832-2.87 2.832Zm2.568 2.227v19.373h-5.136V12.842h5.136Zm17.584 19.373h6.231l-8.006-12.009 7.137-7.364h-6.155l-6.873 7.327V5.214h-5.098v27.001h5.098v-6.533l2.228-2.304 5.438 8.837Zm25.896-5.778c-.718 3.437-3.777 6.344-8.761 6.344-6.42 0-10.046-4.493-10.046-10.271 0-5.74 3.89-10.196 9.555-10.196 6.231 0 9.554 4.758 9.554 11.669h-14.048c.377 2.983 2.039 4.833 4.947 4.833 2.001 0 3.172-.906 3.738-2.379h5.061Zm-5.061-6.004c-.151-2.455-1.775-4.154-4.116-4.154-2.719 0-4.041 1.624-4.494 4.154h8.61Z" fill="#fff" />
</svg>