<svg width="250" height="50" viewBox="0 0 250 50" fill="none" xmlns="http://www.w3.org/2000/svg">
    <path fill-rule="evenodd" clip-rule="evenodd" d="M29.455 22.975a5.317 5.317 0 0 0 2.263 4.638l1.801 1.322v1.023l-1.837-.671c-2.26-.825-3.741-3-3.68-5.407.131-5.176.806-13.912 3.743-17.749a2.92 2.92 0 0 1 2.924-1.066c2.538.544 7.194 2.685 7.71 11.027-.39.104-.773.23-1.147.373a16.382 16.382 0 0 0-.779-4.33c-1.048-3.154-3.003-5.065-5.655-5.527-.531-.091-1.362.063-1.776.476-1.297 1.294-2.97 5.1-3.567 15.891Zm29.673 10.353a1.454 1.454 0 1 0 0-2.908 1.454 1.454 0 0 0 0 2.908Zm-7.024 9.176a4.226 4.226 0 0 0-2.092 0l-9.033 2.314c1.007.738 2.273 1.182 3.836 1.182H57.3c1.562 0 2.828-.444 3.835-1.182l-9.032-2.313ZM39.957 12.285c-.998-2.997-2.764-4.736-5.247-5.168-.388-.067-1.05.062-1.32.332-1.01 1.007-2.796 4.366-3.416 15.552a4.796 4.796 0 0 0 2.04 4.183l1.505 1.043v-.602c0-4.899 2.968-9.116 7.2-10.954-.009-.414-.087-2.362-.762-4.386Zm30.17 14.899-1.528 1.06v-.619c0-4.89-2.957-9.1-7.177-10.943.008-.394.082-2.357.762-4.397.999-2.997 2.763-4.736 5.247-5.168.388-.067 1.05.062 1.32.332 1.011 1.008 2.798 4.366 3.416 15.552a4.796 4.796 0 0 1-2.04 4.183Zm3.99-3.304c-.133-5.177-.807-13.912-3.744-17.749a2.92 2.92 0 0 0-2.924-1.066c-2.537.545-7.195 2.685-7.71 11.027.398.106.789.235 1.17.382.025-.674.151-2.45.779-4.339 1.047-3.154 3.003-5.065 5.654-5.527.532-.092 1.362.063 1.777.476 1.297 1.294 2.97 5.1 3.567 15.891a5.319 5.319 0 0 1-2.264 4.638l-1.824 1.34v1.007l1.837-.672a5.605 5.605 0 0 0 3.682-5.408ZM56.199 36.134c0 1.15.932 2.084 2.084 2.084h7.501a2.16 2.16 0 0 1 2.16 2.16c0 1.34-.595 2.627-1.66 3.439a4.186 4.186 0 0 1-3.599.73l-10.423-2.671a4.818 4.818 0 0 0-.882-.14v-2.38h.019c0-.653.528-1.18 1.18-1.18h.89c.68 0 1.252-.558 1.255-1.238v-.065c-.018-.799-.708-1.452-1.506-1.452h-4.323c-.798 0-1.488.653-1.506 1.452v.065c.002.68.575 1.237 1.256 1.237h.889c.652 0 1.18.529 1.18 1.18h.019v2.38c-.296.02-.593.067-.882.14l-10.424 2.672a4.18 4.18 0 0 1-3.6-.73c-1.064-.812-1.66-2.1-1.66-3.438v-12.75c0-6.236 5.056-11.29 11.29-11.29h5.601v6.084h3.776V16.34h.52v6.083h4.034v6.14a3.325 3.325 0 0 1 3.052 3.054h5.77v6.132h-.52v-5.612h-5.25a3.325 3.325 0 0 1-3.31 3.057c-1.831 0-3.32-1.49-3.32-3.32a3.324 3.324 0 0 1 3.058-3.31v-5.621h-7.81v8.025a2.99 2.99 0 0 0 2.947 2.99l.494.007c.96.015 1.722.808 1.7 1.766v.403Zm-14.665-4.258a1.454 1.454 0 1 0 2.909 0 1.454 1.454 0 0 0-2.909 0Zm17.596-2.802a2.804 2.804 0 0 0-2.801 2.801c0 1.545 1.255 2.8 2.8 2.8 1.546 0 2.801-1.255 2.801-2.8s-1.255-2.8-2.8-2.8Zm129.185-8.242v13.734h3.623V20.832h-3.623Zm.261-2.428c.39.34.909.51 1.557.51.639 0 1.153-.17 1.544-.51.398-.34.597-.78.597-1.32 0-.548-.195-.988-.585-1.32-.39-.34-.909-.51-1.556-.51-.648 0-1.167.17-1.557.51-.39.332-.585.772-.585 1.32 0 .54.195.98.585 1.32Zm-63.994 14.468c1.004 1.27 2.37 1.905 4.096 1.905.955 0 1.802-.207 2.541-.622a4.05 4.05 0 0 0 1.656-1.743h.224v2.154h3.511V15.59h-3.623v7.433h-.212a3.97 3.97 0 0 0-1.619-1.768c-.722-.431-1.548-.647-2.478-.647-1.726 0-3.092.635-4.096 1.905-.996 1.261-1.494 2.984-1.494 5.167 0 2.192.498 3.922 1.494 5.192Zm5.329-9.226c.963 0 1.723.365 2.279 1.095.556.723.834 1.71.834 2.964 0 1.262-.278 2.254-.834 2.976-.548.714-1.308 1.07-2.279 1.07-.971 0-1.731-.356-2.278-1.07-.548-.722-.822-1.718-.822-2.989 0-1.261.274-2.249.822-2.963.556-.722 1.315-1.083 2.278-1.083Zm-29.812 11.38c-2.606 0-4.665-.842-6.176-2.527-1.502-1.694-2.253-4.001-2.253-6.923 0-2.922.75-5.226 2.253-6.91 1.511-1.686 3.57-2.528 6.176-2.528 2.125 0 3.918.635 5.379 1.905 1.47 1.261 2.275 2.872 2.416 4.83h-3.661c-.182-1.037-.651-1.867-1.407-2.49-.747-.622-1.656-.933-2.727-.933-1.41 0-2.527.547-3.35 1.643-.82 1.096-1.232 2.59-1.232 4.483 0 1.892.411 3.39 1.233 4.495.822 1.095 1.942 1.643 3.362 1.643 1.079 0 1.992-.294 2.739-.884.747-.59 1.212-1.378 1.395-2.365h3.66c-.157 1.942-.958 3.523-2.403 4.744-1.436 1.211-3.237 1.817-5.404 1.817Zm15.467-3.125c.962 0 1.71-.365 2.241-1.096.531-.738.797-1.776.797-3.113 0-1.32-.27-2.349-.81-3.087-.531-.74-1.274-1.109-2.228-1.109-.963 0-1.71.37-2.242 1.109-.531.738-.797 1.768-.797 3.087 0 1.337.262 2.375.785 3.113.531.73 1.282 1.096 2.254 1.096Zm4.955 1.058c-1.195 1.27-2.847 1.906-4.955 1.906-2.109 0-3.765-.635-4.969-1.906-1.195-1.27-1.793-3.025-1.793-5.267 0-2.224.602-3.971 1.806-5.241 1.212-1.279 2.864-1.918 4.956-1.918 2.091 0 3.739.64 4.943 1.918 1.212 1.27 1.818 3.017 1.818 5.241 0 2.242-.602 3.997-1.806 5.267Zm24.259-9.65c-.839 0-1.532.27-2.08.81-.539.54-.842 1.253-.909 2.142h5.853c-.042-.913-.32-1.631-.835-2.154-.506-.532-1.183-.797-2.029-.797Zm2.938 7.347h3.375c-.274 1.303-.972 2.333-2.092 3.088-1.113.747-2.507 1.12-4.184 1.12-2.092 0-3.723-.622-4.893-1.867-1.171-1.254-1.756-2.997-1.756-5.23 0-2.233.589-3.997 1.768-5.292s2.789-1.942 4.831-1.942c2.026 0 3.603.61 4.732 1.83 1.137 1.22 1.706 2.922 1.706 5.105v1.109h-9.426v.186c.025 1.021.315 1.83.872 2.428.564.59 1.319.884 2.266.884.714 0 1.311-.12 1.793-.36.481-.25.817-.602 1.008-1.059Zm11.993.685c-.565.473-1.266.71-2.105.71-.639 0-1.158-.146-1.556-.436-.39-.3-.585-.702-.585-1.208 0-.996.772-1.548 2.316-1.656l2.776-.174v1.008c0 .697-.282 1.283-.846 1.756Zm-6.55 2.303c.838.756 1.922 1.133 3.25 1.133.888 0 1.685-.174 2.391-.523.705-.356 1.236-.85 1.593-1.481h.225v1.793h3.511V25.19c0-1.478-.498-2.623-1.494-3.437-.988-.813-2.387-1.22-4.196-1.22-1.727 0-3.134.373-4.222 1.12-1.079.74-1.676 1.744-1.793 3.014h3.337c.308-.847 1.134-1.27 2.478-1.27.747 0 1.32.158 1.719.473.398.307.597.747.597 1.32v1.12l-3.324.2c-1.71.1-3.026.506-3.947 1.22-.913.706-1.37 1.677-1.37 2.913 0 1.246.415 2.246 1.245 3.001Zm13.001.922V20.832h3.511v2.241h.224a3.645 3.645 0 0 1 1.432-1.855c.681-.457 1.47-.685 2.366-.685.955 0 1.756.224 2.403.672.656.44 1.121 1.063 1.395 1.868h.224a3.901 3.901 0 0 1 1.594-1.843c.738-.465 1.585-.697 2.54-.697 1.369 0 2.453.415 3.25 1.245.797.83 1.195 1.95 1.195 3.362v9.426h-3.623v-8.467c0-1.627-.764-2.44-2.291-2.44-.731 0-1.316.232-1.756.697-.44.464-.66 1.066-.66 1.805v8.405h-3.486v-8.617c0-.722-.2-1.282-.598-1.68-.399-.407-.955-.61-1.669-.61-.705 0-1.286.248-1.743.746-.456.498-.685 1.13-.685 1.893v8.268h-3.623Zm36.324-4.11c.556-.705.834-1.664.834-2.875 0-1.212-.282-2.171-.847-2.877-.556-.705-1.319-1.058-2.291-1.058-.971 0-1.73.353-2.278 1.058-.54.697-.81 1.652-.81 2.864 0 1.22.27 2.183.81 2.889.539.697 1.299 1.046 2.278 1.046.98 0 1.748-.349 2.304-1.046Zm-2.353 9.314c-1.81 0-3.283-.369-4.421-1.108-1.129-.73-1.751-1.701-1.867-2.913h3.586c.091.423.381.76.871 1.008.49.25 1.125.374 1.905.374.972 0 1.727-.216 2.266-.648.54-.423.81-1.02.81-1.793v-2.54h-.224c-.781 1.478-2.159 2.217-4.134 2.217-1.71 0-3.063-.61-4.059-1.83-.997-1.23-1.495-2.881-1.495-4.956 0-2.134.503-3.827 1.507-5.08 1.013-1.263 2.387-1.893 4.122-1.893.929 0 1.763.215 2.502.647a4.064 4.064 0 0 1 1.669 1.78h.224v-2.203h3.511v13.684c0 1.61-.61 2.889-1.83 3.835-1.22.946-2.868 1.42-4.943 1.42Zm17.209-8.965c-.531.73-1.278 1.096-2.241 1.096-.971 0-1.723-.365-2.254-1.096-.523-.738-.784-1.776-.784-3.113 0-1.32.265-2.349.797-3.087.531-.74 1.278-1.109 2.241-1.109.954 0 1.697.37 2.229 1.109.539.738.809 1.768.809 3.087 0 1.337-.266 2.375-.797 3.113Zm-2.241 4.06c2.108 0 3.76-.635 4.955-1.906 1.204-1.27 1.806-3.025 1.806-5.267 0-2.224-.606-3.971-1.818-5.241-1.204-1.279-2.851-1.918-4.943-1.918-2.092 0-3.744.64-4.956 1.918-1.204 1.27-1.805 3.017-1.805 5.241 0 2.242.597 3.997 1.793 5.267 1.203 1.27 2.859 1.906 4.968 1.906Z" fill="#fff" />
</svg>