<svg width="100%" height="100%" viewBox="0 0 261 37" fill="none" xmlns="http://www.w3.org/2000/svg">
    <path fill-rule="evenodd" clip-rule="evenodd" d="M.335 36.5h36.706V.5H.335v36Zm32.952-3.682V4.182H4.09v28.636h29.198Z" fill="#fff" />
    <path d="M75.07 21.67h-3.954c-.575 3.512-2.974 5.534-6.286 5.534-4.392 0-7.265-3.348-7.265-8.683 0-5.27 2.771-8.683 7.029-8.683 3.447 0 5.71 1.988 6.353 5.567H74.9c-.777-5.236-5.069-8.65-10.441-8.65-6.454 0-10.915 5.237-10.915 11.766 0 6.727 4.562 11.765 11.016 11.765 5.373 0 9.698-3.38 10.51-8.617Z" fill="#fff" />
    <path fill-rule="evenodd" clip-rule="evenodd" d="M93.21 21.67c0-4.475-3.142-8.618-8.278-8.618-5.136 0-8.28 4.143-8.28 8.617 0 4.474 3.144 8.617 8.28 8.617 5.136 0 8.279-4.143 8.279-8.617Zm-12.671 0c0-3.547 1.588-5.933 4.393-5.933 2.838 0 4.426 2.386 4.426 5.932 0 3.513-1.588 5.932-4.426 5.932-2.805 0-4.393-2.419-4.393-5.932ZM107.584 26.475h-.101c-.811 2.286-2.771 3.81-5.339 3.81-4.596 0-7.097-3.976-7.097-8.616s2.603-8.617 7.097-8.617c2.568 0 4.528 1.492 5.339 3.778h.101V7.087h3.616v22.867h-3.616v-3.48Zm-4.258-10.738c-2.804 0-4.392 2.386-4.392 5.932 0 3.513 1.588 5.932 4.392 5.932 2.839 0 4.393-2.419 4.393-5.932 0-3.546-1.554-5.932-4.393-5.932ZM129.378 24.818h-3.683c-.406 1.325-1.352 2.783-3.548 2.783-2.568 0-4.359-1.756-4.528-4.772h12.063c.507-5.767-2.804-9.777-7.839-9.777s-7.907 4.044-7.907 8.617c0 4.574 2.939 8.617 7.974 8.617 4.123 0 6.759-2.187 7.468-5.468Zm-7.535-9.081c2.467 0 3.92 1.723 4.156 4.408h-8.346c.236-2.685 1.723-4.408 4.19-4.408Z" fill="#fff" />
    <path d="M143.94 16.797c4.393.994 6.59 3.248 6.59 6.86 0 3.812-3.785 6.629-9.191 6.629-6.184 0-9.53-4.242-9.901-8.385h3.953c.237 2.983 2.704 5.303 5.981 5.303 2.974 0 5.17-1.26 5.17-3.38 0-1.857-1.419-2.85-4.426-3.547l-3.379-.762c-4.562-1.06-6.826-3.149-6.826-6.33 0-3.845 3.852-6.43 8.549-6.43 5.947 0 8.988 3.182 9.394 7.126H145.9c-.304-2.718-2.635-4.043-5.372-4.043-2.67 0-4.596 1.126-4.596 3.082 0 1.557 1.183 2.287 4.629 3.082l3.379.795Z" fill="#fff" />
    <path fill-rule="evenodd" clip-rule="evenodd" d="M164.743 26.475h.102v3.48h3.615V13.383h-3.615v3.446h-.102c-.811-2.286-2.771-3.778-5.339-3.778-4.494 0-7.096 3.977-7.096 8.617 0 4.64 2.501 8.617 7.096 8.617 2.568 0 4.528-1.525 5.339-3.811Zm-8.549-4.806c0-3.546 1.622-5.932 4.359-5.932s4.427 2.386 4.427 5.932c0 3.513-1.69 5.932-4.427 5.932-2.703 0-4.359-2.419-4.359-5.932Z" fill="#fff" />
    <path d="M175.826 20.012v9.942h-3.684v-16.57h3.582v3.248h.068c.709-2.32 2.466-3.58 4.933-3.58 3.717 0 5.542 2.486 5.542 6.131v10.771h-3.683v-9.71c0-3.082-1.115-4.474-3.379-4.474-2.264 0-3.379 1.524-3.379 4.242Z" fill="#fff" />
    <path fill-rule="evenodd" clip-rule="evenodd" d="M201.333 26.475h.101v3.48h3.616V7.087h-3.616v9.743h-.101c-.811-2.286-2.771-3.778-5.339-3.778-4.494 0-7.096 3.977-7.096 8.617 0 4.64 2.5 8.617 7.096 8.617 2.568 0 4.528-1.525 5.339-3.811Zm-8.549-4.806c0-3.546 1.588-5.932 4.393-5.932 2.838 0 4.392 2.386 4.392 5.932 0 3.513-1.554 5.932-4.392 5.932-2.805 0-4.393-2.419-4.393-5.932ZM217.788 13.052c4.494 0 7.096 3.977 7.096 8.617 0 4.64-2.5 8.617-7.096 8.617-2.568 0-4.528-1.525-5.339-3.811h-.101v3.48h-3.616V7.087h3.616v9.743h.101c.811-2.286 2.771-3.778 5.339-3.778Zm-1.183 2.685c-2.838 0-4.393 2.386-4.393 5.932 0 3.513 1.555 5.932 4.393 5.932 2.805 0 4.393-2.419 4.393-5.932 0-3.546-1.588-5.932-4.393-5.932ZM243.298 21.67c0-4.475-3.142-8.618-8.279-8.618-5.136 0-8.278 4.143-8.278 8.617 0 4.474 3.142 8.617 8.278 8.617 5.137 0 8.279-4.143 8.279-8.617Zm-12.671 0c0-3.547 1.588-5.933 4.392-5.933 2.839 0 4.427 2.386 4.427 5.932 0 3.513-1.588 5.932-4.427 5.932-2.804 0-4.392-2.419-4.392-5.932Z" fill="#fff" />
    <path d="m251.545 23.525-4.494 6.43h-4.157l6.488-8.916-5.643-7.655h4.156l3.65 5.17 3.649-5.17h4.123l-5.61 7.622 6.455 8.948h-4.123l-4.494-6.429Z" fill="#fff" />
</svg>