<svg width="100%" height="100%" viewBox="0 0 32 32" fill="none" xmlns="http://www.w3.org/2000/svg">
    <path d="M25.01 8.658A21.3 21.3 0 0 0 19.718 7a.08.08 0 0 0-.085.041c-.229.41-.482.945-.66 1.366a19.616 19.616 0 0 0-5.943 0c-.178-.43-.44-.956-.67-1.366a.083.083 0 0 0-.084-.04 21.24 21.24 0 0 0-5.293 1.656.076.076 0 0 0-.034.03c-3.371 5.082-4.295 10.04-3.842 14.935a.09.09 0 0 0 .034.061 21.487 21.487 0 0 0 6.493 3.312c.033.01.07-.002.09-.03.5-.69.947-1.416 1.329-2.18a.083.083 0 0 0-.045-.116c-.707-.27-1.38-.6-2.028-.975a.085.085 0 0 1-.008-.14c.136-.103.272-.21.402-.318a.08.08 0 0 1 .084-.012c4.255 1.96 8.862 1.96 13.067 0a.08.08 0 0 1 .085.01c.13.109.266.217.404.32a.085.085 0 0 1-.007.14c-.648.382-1.322.705-2.03.974a.084.084 0 0 0-.044.117c.39.763.837 1.49 1.328 2.18.02.028.057.04.09.03a21.416 21.416 0 0 0 6.503-3.312.084.084 0 0 0 .034-.06c.542-5.66-.908-10.576-3.844-14.935a.066.066 0 0 0-.034-.031ZM11.688 20.642c-1.28 0-2.336-1.187-2.336-2.645 0-1.457 1.035-2.644 2.336-2.644 1.312 0 2.357 1.197 2.337 2.644 0 1.458-1.035 2.645-2.337 2.645Zm8.64 0c-1.281 0-2.337-1.187-2.337-2.645 0-1.457 1.035-2.644 2.337-2.644 1.311 0 2.357 1.197 2.336 2.644 0 1.458-1.025 2.645-2.336 2.645Z" fill="#fff" />
</svg>