<svg width="100%" height="100%" viewBox="0 0 32 32" fill="none" xmlns="http://www.w3.org/2000/svg">
    <path fill-rule="evenodd" clip-rule="evenodd" d="M15.046 3C7.274 3 1 9.192 1 16.863c0 6.099 4.027 11.274 9.645 13.123.75.092.937-.278.937-.647v-2.403c-3.933.832-4.776-1.848-4.776-1.848-.656-1.572-1.592-2.034-1.592-2.034-1.311-.831.094-.831.094-.831 1.404.092 2.153 1.386 2.153 1.386 1.218 2.125 3.278 1.479 4.12 1.109.094-.924.469-1.479.937-1.848-3.09-.37-6.368-1.572-6.368-6.84a5.47 5.47 0 0 1 1.405-3.696c-.187-.37-.656-1.756.094-3.697 0 0 1.217-.37 3.839 1.387 1.124-.278 2.341-.462 3.558-.462 1.218 0 2.435.184 3.559.462 2.715-1.756 3.839-1.387 3.839-1.387.75 1.941.28 3.327.094 3.697.936.924 1.404 2.218 1.404 3.697 0 5.36-3.277 6.469-6.367 6.839.468.462.936 1.293.936 2.587v3.79c0 .369.281.831.937.646 5.618-1.848 9.551-7.023 9.551-13.123C29.093 9.192 22.819 3 15.046 3Z" fill="#fff" />
</svg>