<svg width="250" height="50" viewBox="0 0 250 50" fill="none" xmlns="http://www.w3.org/2000/svg">
    <path fill-rule="evenodd" clip-rule="evenodd" d="M100.824 20.3118L103.127 27.4051C103.474 28.476 103.097 29.6398 102.188 30.3011L82.2252 44.8037C82.2223 44.8059 82.2188 44.8073 82.2159 44.8094C82.2153 44.8099 82.2145 44.8102 82.2138 44.8107C82.2125 44.8116 82.2111 44.8124 82.2097 44.8132C82.2085 44.8139 82.2072 44.8146 82.2061 44.8154C82.1753 44.8367 82.1434 44.8563 82.1105 44.8741C82.1078 44.8756 82.1053 44.8773 82.1027 44.879C82.1008 44.8803 82.0989 44.8815 82.0968 44.8826C82.0953 44.8833 82.0937 44.8843 82.0922 44.8852C82.0908 44.8859 82.0895 44.8867 82.0881 44.8874C82.086 44.8885 82.0837 44.8892 82.0815 44.8902C82.08 44.891 82.0782 44.8915 82.0767 44.8923C82.0745 44.8933 82.0722 44.8942 82.0698 44.8951C82.0681 44.8957 82.0664 44.8964 82.0647 44.8972C82.0539 44.9023 82.0429 44.9068 82.0318 44.9112C82.0263 44.9134 82.0208 44.9156 82.0153 44.9179C82.0088 44.9205 82.0024 44.9234 81.9961 44.9262C81.9849 44.931 81.9738 44.9359 81.9623 44.94L81.9601 44.9409C81.9573 44.9419 81.9548 44.9433 81.952 44.9443C81.9507 44.9448 81.9493 44.9453 81.948 44.9458C81.9457 44.9467 81.9435 44.9475 81.9411 44.9483C81.9403 44.9485 81.9395 44.9486 81.9386 44.9488C81.938 44.9489 81.9374 44.9491 81.9368 44.9493C81.9344 44.95 81.932 44.9505 81.9297 44.951C81.9273 44.9515 81.9249 44.952 81.9225 44.9527C81.9208 44.9533 81.9192 44.9534 81.9175 44.9539C81.8937 44.961 81.8692 44.9663 81.8448 44.9716C81.8374 44.9732 81.8303 44.9753 81.8231 44.9771C81.8205 44.9777 81.8179 44.9783 81.8153 44.9788C81.8146 44.9789 81.8139 44.9791 81.8133 44.9793C81.8126 44.9795 81.8119 44.9797 81.8112 44.9798C81.8098 44.9801 81.8084 44.9805 81.807 44.9809C81.8053 44.9813 81.8037 44.9818 81.8019 44.9821C81.7965 44.983 81.7914 44.9845 81.7861 44.9854C81.784 44.9857 81.7818 44.9858 81.7796 44.9859C81.7775 44.986 81.7753 44.9861 81.7732 44.9864L81.7709 44.9866C81.7237 44.9933 81.6754 44.998 81.6267 44.998H81.625C81.5764 44.998 81.5287 44.9933 81.4816 44.9866L81.4788 44.9864C81.4767 44.9861 81.4745 44.986 81.4724 44.9859C81.4702 44.9858 81.4681 44.9857 81.466 44.9854C81.4607 44.9846 81.4555 44.983 81.4503 44.9821C81.4484 44.9818 81.4467 44.9813 81.4449 44.9808C81.4436 44.9804 81.4423 44.9801 81.4409 44.9798C81.4397 44.9796 81.4387 44.9793 81.4377 44.979C81.4373 44.9789 81.437 44.9788 81.4367 44.9788C81.4321 44.9779 81.4276 44.9768 81.4231 44.9757C81.418 44.9743 81.413 44.9729 81.4078 44.9718L81.3995 44.9699C81.3775 44.9651 81.3555 44.9602 81.3342 44.9538C81.3324 44.9532 81.3305 44.953 81.3288 44.9525C81.3268 44.9519 81.3246 44.9515 81.3225 44.951C81.32 44.9505 81.3175 44.9499 81.315 44.9492L81.3108 44.9481C81.3073 44.947 81.3038 44.9456 81.3002 44.9443C81.2973 44.9433 81.2948 44.9419 81.2919 44.9409L81.2898 44.94C81.2788 44.9361 81.2683 44.9315 81.2577 44.9268C81.2518 44.9242 81.2458 44.9215 81.2397 44.919C81.2351 44.9172 81.2304 44.9153 81.2257 44.9134C81.2124 44.9081 81.1991 44.9029 81.1863 44.8967C81.1826 44.8948 81.1785 44.8937 81.1748 44.8919C81.1742 44.8916 81.1737 44.8914 81.1731 44.8912C81.1721 44.8908 81.171 44.8904 81.1701 44.8899C81.168 44.8889 81.1657 44.8883 81.1636 44.8873C81.1622 44.8866 81.1608 44.8858 81.1595 44.885C81.1581 44.8842 81.1568 44.8834 81.1554 44.8827C81.153 44.8814 81.1504 44.8798 81.1481 44.8783C81.1461 44.8769 81.144 44.8756 81.1419 44.8744C81.1087 44.8564 81.0767 44.8367 81.0458 44.8153L81.0418 44.8129C81.0404 44.812 81.0389 44.8113 81.0376 44.8103C81.038 44.8106 81.0385 44.811 81.0388 44.8112L81.0418 44.8129L81.0458 44.8153C81.0767 44.8367 81.1087 44.8564 81.1419 44.8744C81.1465 44.8768 81.1509 44.8803 81.1554 44.8827L81.1511 44.8809L81.1475 44.8793C81.1469 44.879 81.1464 44.8787 81.1457 44.8783C81.1385 44.8744 81.1316 44.8702 81.1247 44.8659L81.1126 44.8586L81.1061 44.8548L81.095 44.8483C81.0887 44.8447 81.0824 44.841 81.0763 44.8372L81.0615 44.8276C81.0585 44.8256 81.0556 44.8235 81.0527 44.8215C81.0472 44.8175 81.0417 44.8134 81.0361 44.8094C81.0346 44.8083 81.033 44.8075 81.0315 44.8066C81.0299 44.8058 81.0284 44.8049 81.0269 44.8038L81.0167 44.7964L81.0185 44.798C81.0098 44.7915 81.0008 44.7855 80.9924 44.7788C80.9926 44.7789 80.9922 44.7786 80.9924 44.7788L61.0671 30.3016C60.1575 29.64 59.7801 28.4762 60.1279 27.4053L62.4395 20.3115C62.439 20.3131 62.4387 20.3147 62.4383 20.3164C62.4387 20.3146 62.4393 20.3123 62.4399 20.3105L62.4405 20.3083L67.0002 6.24458C67.253 5.4947 67.9425 5.00006 68.7216 5.00006H68.7312C69.5224 5.00414 70.1917 5.49215 70.4362 6.24317L74.7843 19.6051H88.4782L92.8181 6.24394C93.0629 5.49215 93.7323 5.00414 94.5235 5.00006C95.3124 4.99381 96.0008 5.49151 96.2508 6.23309L100.823 20.3095L100.823 20.3104C100.824 20.3141 100.825 20.3178 100.826 20.3215C100.825 20.3199 100.825 20.3182 100.825 20.3166C100.824 20.315 100.824 20.3134 100.824 20.3118ZM80.9818 44.7683C80.9921 44.7768 81.0026 44.785 81.0132 44.793C81.0136 44.7933 81.0138 44.7936 81.0142 44.7943L81.0167 44.7964M98.451 19.6051L94.536 7.55188L90.6211 19.6051H98.451ZM97.7655 21.6433L89.9589 21.6432L84.3854 38.7871L97.7655 21.6433ZM65.4966 21.6433L78.8693 38.7881L73.3037 21.6433H65.4966ZM72.6409 19.6051L68.7188 7.55175L64.8109 19.6051H72.6409ZM62.066 28.0355C61.9918 28.2635 62.072 28.512 62.2655 28.6528L76.3754 38.9047L63.7843 22.7621L62.066 28.0355ZM81.6266 40.6809L87.8157 21.6433H75.4463L81.6266 40.6809ZM82.2906 44.7506C82.2926 44.7487 82.2947 44.7469 82.2968 44.7451C82.3111 44.7326 82.3251 44.72 82.3387 44.7067C82.3379 44.7075 82.337 44.7082 82.3361 44.7089C82.3354 44.7095 82.3347 44.71 82.3341 44.7107C82.3329 44.7117 82.3315 44.7126 82.3304 44.7137C82.3014 44.7417 82.2708 44.7677 82.2386 44.7919L82.2378 44.7927C82.2368 44.7933 82.236 44.7941 82.2351 44.7949C82.2345 44.7954 82.234 44.796 82.2334 44.7964C82.2382 44.7929 82.2431 44.7894 82.2479 44.786C82.2542 44.7811 82.2604 44.7761 82.2666 44.7711C82.2681 44.7698 82.2697 44.7685 82.2713 44.7672L82.274 44.7648C82.2796 44.7601 82.2851 44.7554 82.2906 44.7506ZM86.8816 38.9015L100.989 28.6525C101.183 28.5121 101.262 28.2635 101.188 28.0345L99.4767 22.7634L86.8816 38.9015ZM126.192 18.6094C125.158 17.7799 123.563 16.9632 121.1 16.9632C116.927 16.9632 114.081 19.6559 114.094 25.2072C114.094 30.6564 116.85 33.247 120.959 33.247C122.452 33.247 123.55 32.9918 124.188 32.6728L124.124 26.4834H119.275V23.9183H126.868V26.4834L126.932 34.6381C125.502 35.2379 123.32 35.8376 120.755 35.8376C115.638 35.8376 111.158 32.8642 111.158 25.2327C111.158 17.9458 115.306 14.3343 121.227 14.3343C123.575 14.3343 125.77 15.1 127.391 16.5293L126.192 18.6094ZM148.609 14.7128H151.391L151.403 32.8854H159.89V35.4505H148.621L148.609 14.7128ZM167.167 33.268C168.75 33.268 169.911 32.5406 170.613 31.8132H170.626V27.9719C170.154 27.8826 169.235 27.8188 168.661 27.8188C165.623 27.8188 164.194 28.8014 164.194 30.856C164.194 32.2215 165.049 33.268 167.167 33.268ZM161.808 21.3741C163.416 20.0341 165.483 19.2429 167.729 19.2429C171.877 19.2429 173.331 21.489 173.344 24.8453V35.463H171.379L170.868 33.4339C170.205 34.927 168.278 35.8458 166.274 35.8458C163.301 35.8458 161.335 34.2379 161.335 31.0347C161.335 27.4614 163.811 25.7514 168.686 25.7514C169.248 25.7514 170.166 25.8152 170.613 25.9045V24.8963C170.613 22.931 169.605 21.757 167.321 21.757C165.317 21.757 163.926 22.4206 162.79 23.0842L161.808 21.3741ZM182.321 33.3639C181.274 33.3639 180.355 33.2362 179.666 32.9172V23.3332C180.611 22.542 181.785 21.9677 183.278 21.9677C185.97 21.9677 187.004 23.8692 187.004 26.9447C187.004 31.3092 185.332 33.3639 182.321 33.3639ZM183.495 19.2495C181.006 19.2495 179.666 20.9468 179.666 20.9468V18.2668L179.653 14.7191H176.935L176.948 34.9463C178.313 35.5206 180.177 35.8269 182.206 35.8269C187.4 35.8269 189.901 32.5088 189.901 26.7788C189.888 22.2485 187.578 19.2495 183.495 19.2495ZM140.692 14.7104H137.974L137.987 18.1944V30.2286C137.987 33.5849 139.442 35.831 143.589 35.831C144.164 35.831 144.725 35.7799 145.261 35.6778V33.2404C144.866 33.3042 144.444 33.3297 143.998 33.3297C141.713 33.3297 140.705 32.1556 140.705 30.1903V21.8952H145.261V19.6237H140.705L140.692 14.7104ZM133.78 35.452H131.061V19.6275H133.78V35.452ZM131.061 17.4454H133.78V14.7272H131.061V17.4454ZM82.0463 44.9085C82.0372 44.9126 82.0281 44.9166 82.019 44.9206C82.0125 44.9233 82.006 44.9261 81.9994 44.9287C82.003 44.9273 82.0065 44.9256 82.01 44.9239C82.0132 44.9224 82.0165 44.9208 82.0197 44.9195L82.0299 44.9154C82.0354 44.9132 82.0409 44.9109 82.0463 44.9085ZM81.8012 44.9852C81.8147 44.9828 81.828 44.9806 81.8413 44.9778C81.8354 44.979 81.8295 44.9799 81.8235 44.9809L81.8109 44.9829C81.8077 44.9835 81.8045 44.9847 81.8012 44.9852ZM81.4654 44.9873C81.4717 44.9883 81.478 44.9885 81.4843 44.9894L81.4792 44.9884C81.4769 44.9881 81.4746 44.988 81.4723 44.9879C81.47 44.9878 81.4677 44.9876 81.4654 44.9873ZM81.7326 44.9945C81.7006 44.998 81.6684 44.9996 81.6361 45L81.6424 44.9995C81.6726 44.9991 81.7028 44.9977 81.7326 44.9945ZM82.2039 44.8201L82.2003 44.8227L82.1994 44.8233C82.1964 44.8255 82.1933 44.8277 82.1902 44.8298C82.1861 44.8326 82.182 44.8352 82.1778 44.8378L82.1755 44.8393C82.1658 44.8455 82.1556 44.8511 82.1456 44.8569L82.1408 44.8598L82.1288 44.867L82.1187 44.8731C82.1145 44.8756 82.1101 44.8781 82.1057 44.8804L82.104 44.8814L82.1003 44.8831L82.0966 44.8848L82.1007 44.8823L82.1039 44.8802C82.106 44.8788 82.1082 44.8774 82.1104 44.8762C82.1433 44.8583 82.1752 44.8388 82.206 44.8175L82.209 44.8158L82.2112 44.8144L82.2131 44.8133L82.2149 44.8119L82.2166 44.8109L82.2039 44.8201ZM81.1668 44.891L81.1703 44.8922L81.175 44.8948L81.1668 44.891ZM81.3428 44.9576L81.3492 44.9597C81.3528 44.9609 81.3564 44.9621 81.3601 44.9631C81.3471 44.9595 81.334 44.9565 81.3209 44.9524L81.3105 44.9491L81.3124 44.9495L81.3147 44.9501C81.3191 44.9515 81.324 44.952 81.3285 44.9534L81.3296 44.9538L81.3319 44.9543L81.3344 44.9549C81.356 44.9614 81.3782 44.9663 81.4003 44.9712L81.408 44.9729C81.4123 44.9738 81.4166 44.975 81.4208 44.9761C81.4261 44.9775 81.4313 44.979 81.4367 44.98L81.441 44.9811L81.4288 44.979L81.4225 44.978L81.4173 44.9771L81.412 44.9761L81.4055 44.9747L81.3925 44.9719C81.3817 44.9693 81.3707 44.9659 81.3601 44.9631L81.3483 44.9592L81.3428 44.9576ZM81.615 45C81.5828 44.9996 81.5506 44.998 81.5185 44.9945C81.5485 44.9977 81.5788 44.9991 81.609 44.9996C81.611 44.9996 81.613 45 81.615 45ZM81.7867 44.9873C81.7806 44.9884 81.7743 44.9885 81.7681 44.9894L81.7729 44.9884C81.7774 44.9877 81.7822 44.988 81.7867 44.9873ZM82.0871 44.8899L82.0774 44.8945C82.0788 44.8939 82.0799 44.893 82.0811 44.8924C82.0823 44.8918 82.0835 44.8913 82.0847 44.8909L82.0871 44.8899ZM81.4114 44.9778C81.4247 44.9806 81.438 44.9829 81.4515 44.9853C81.4496 44.985 81.4477 44.9845 81.4459 44.984L81.4417 44.9829C81.437 44.982 81.4323 44.9813 81.4276 44.9806L81.4191 44.9792L81.4114 44.9778ZM81.8916 44.9629L81.8961 44.9616L81.904 44.9596L81.9207 44.9551L81.9304 44.9523L81.9398 44.9493L81.9362 44.9501C81.9317 44.9516 81.9267 44.9523 81.9221 44.9537L81.92 44.9543L81.9177 44.9548C81.8953 44.9616 81.8725 44.9666 81.8497 44.9716L81.8448 44.9726C81.8404 44.9736 81.836 44.9747 81.8317 44.9759C81.8263 44.9773 81.8209 44.9787 81.8153 44.9798L81.8133 44.9803L81.8112 44.9808L81.8229 44.9789C81.8287 44.978 81.8345 44.9771 81.8403 44.9758C81.8425 44.9754 81.8447 44.9749 81.8468 44.9744C81.8512 44.9735 81.8555 44.9726 81.8599 44.9716C81.8663 44.9701 81.8726 44.9683 81.879 44.9665L81.8916 44.9629ZM82.0644 44.8986C82.0483 44.9063 82.0315 44.9124 82.015 44.9193C82.0086 44.9219 82.0022 44.9247 81.9959 44.9275L81.99 44.9301L81.9843 44.9326C81.977 44.9357 81.9696 44.9387 81.9621 44.9414L81.96 44.9422L81.9518 44.9457L81.97 44.9392L81.9751 44.9374C81.9835 44.9343 81.9918 44.9313 82.0001 44.928C82.004 44.9264 82.0078 44.9246 82.0116 44.9228C82.0144 44.9215 82.0175 44.92 82.0204 44.9188L82.0359 44.9125C82.0396 44.911 82.0433 44.9094 82.0469 44.9078L82.0539 44.9047C82.0618 44.9011 82.0696 44.8984 82.0774 44.8945L82.0792 44.8928L82.0815 44.8916C82.08 44.8923 82.0782 44.8929 82.0767 44.8936C82.0747 44.8945 82.0727 44.8953 82.0708 44.896L82.0644 44.8986ZM81.2898 44.9416C81.2788 44.9378 81.2683 44.9331 81.2577 44.9284L81.2456 44.9231L81.2397 44.9207L81.2258 44.9151C81.2125 44.9098 81.1991 44.9045 81.1863 44.8983L81.1854 44.8979L81.181 44.8961C81.1789 44.8953 81.1768 44.8945 81.1748 44.8935L81.1723 44.8925L81.1703 44.8922L81.1748 44.8935C81.1849 44.8985 81.1945 44.9039 81.2048 44.9085C81.2109 44.9113 81.2176 44.9133 81.2238 44.9158L81.2316 44.9189C81.2345 44.9201 81.2375 44.9215 81.2404 44.9229C81.2439 44.9246 81.2478 44.9271 81.2514 44.9285C81.2597 44.9319 81.2683 44.9345 81.2766 44.9375C81.2844 44.9403 81.2922 44.9433 81.3001 44.9459L81.2962 44.9443C81.2948 44.9437 81.2934 44.943 81.2918 44.9425L81.2907 44.9421L81.2898 44.9416ZM81.68 44.9969C81.7104 44.9949 81.741 44.9908 81.7709 44.9866L81.7707 44.9874L81.7717 44.9874L81.7729 44.9873C81.7715 44.9874 81.7699 44.9878 81.7684 44.9881L81.7581 44.9898L81.7487 44.9913L81.7429 44.9922L81.7329 44.993C81.7153 44.9949 81.6977 44.9961 81.68 44.9969ZM81.6331 44.9986L81.6365 44.9984L81.6396 44.9982L81.6427 44.998C81.6551 44.9978 81.6676 44.9975 81.68 44.9969L81.6635 44.9978C81.6534 44.9983 81.6433 44.9986 81.6331 44.9986ZM81.6196 44.9986L81.625 44.998L81.6257 44.9987L81.6267 44.998L81.6331 44.9986C81.6312 44.9988 81.6277 44.9987 81.6257 44.9987C81.6241 44.9987 81.6213 44.9988 81.6196 44.9986ZM81.572 44.9969C81.5845 44.9975 81.597 44.9978 81.6095 44.998C81.6116 44.998 81.6135 44.9984 81.6155 44.9984L81.6196 44.9986C81.6037 44.9985 81.5878 44.9979 81.572 44.9969ZM81.572 44.9969C81.5416 44.9949 81.5115 44.9908 81.4816 44.9866L81.4809 44.9872L81.4788 44.9864L81.4834 44.9879C81.4872 44.9884 81.4909 44.9891 81.4946 44.9897C81.4993 44.9906 81.5041 44.9914 81.5088 44.9919L81.5189 44.9929C81.5309 44.9942 81.543 44.9952 81.555 44.9959L81.572 44.9969Z" fill="white" />
</svg>
    