<svg width="100%" height="100%" viewBox="0 0 150 47" fill="none" xmlns="http://www.w3.org/2000/svg">
    <path d="M105.373 11.51h-3.199l.015 23.848h12.958v-2.95h-9.759l-.015-20.898ZM127.479 31.174a5.46 5.46 0 0 1-3.963 1.673c-2.436 0-3.419-1.203-3.419-2.773 0-2.363 1.644-3.493 5.137-3.493.66 0 1.717.073 2.26.176v4.417h-.015Zm-3.317-14.455c-2.583 0-4.96.91-6.809 2.45l1.13 1.967c1.306-.763 2.905-1.526 5.21-1.526 2.627 0 3.786 1.35 3.786 3.61v1.16c-.514-.103-1.57-.177-2.216-.177-5.606 0-8.453 1.967-8.453 6.076 0 3.684 2.26 5.533 5.679 5.533 2.304 0 4.52-1.057 5.283-2.774l.587 2.334h2.261v-12.21c-.015-3.86-1.688-6.443-6.458-6.443ZM140.943 32.958c-1.203 0-2.26-.147-3.052-.514V21.423c1.086-.91 2.436-1.57 4.153-1.57 3.097 0 4.285 2.186 4.285 5.723 0 5.02-1.922 7.382-5.386 7.382Zm1.35-16.231c-2.861 0-4.402 1.951-4.402 1.951v-3.082l-.015-4.08h-3.126l.015 23.262c1.57.66 3.713 1.013 6.046 1.013 5.973 0 8.85-3.816 8.85-10.406-.015-5.21-2.671-8.659-7.368-8.659ZM70.539 14.098c2.832 0 4.667.939 5.856 1.893l1.38-2.393c-1.865-1.643-4.389-2.524-7.09-2.524-6.809 0-11.579 4.153-11.579 12.533 0 8.777 5.152 12.196 11.037 12.196 2.95 0 5.46-.69 7.103-1.38l-.073-9.377v-2.951H68.44v2.95h5.577l.074 7.118c-.734.367-1.996.66-3.713.66-4.726 0-7.896-2.978-7.896-9.245-.015-6.384 3.258-9.48 8.057-9.48ZM93.07 11.507h-3.126l.015 4.006v13.84c0 3.86 1.673 6.442 6.443 6.442.66 0 1.306-.058 1.922-.176v-2.803a9.15 9.15 0 0 1-1.453.103c-2.627 0-3.786-1.35-3.786-3.61v-9.54h5.24v-2.612h-5.24l-.015-5.65ZM81.995 35.36h3.126V17.16h-3.126V35.36ZM81.995 14.652h3.126v-3.126h-3.126v3.126Z" fill="#fff" />
    <path d="m25.573 46.256.054-.024-.03.013c-.008.003-.016.008-.024.01ZM25.346 46.321l.046-.008-.035.005-.011.003ZM3.08 17.945l.001-.002v.004-.001ZM24.959 46.323l.022.003-.006-.002h-.016ZM25.155 46.337a1.206 1.206 0 0 0 .008 0h-.008ZM25.792 46.143l.032-.023-.003.002-.029.02ZM24.612 46.21l.014.007-.006-.003-.008-.003ZM24.817 46.288c-.005 0-.01-.002-.015-.004l-.016-.003-.005-.002.012.004.045.012-.02-.006h-.002ZM25.02 46.331c.037.004.075.006.111.006h-.006c-.035 0-.07-.002-.105-.006ZM24.66 46.232l.053.023-.023-.01-.03-.013ZM25.308 46.326l.021-.003c-.005.001-.01 0-.016.002h-.005ZM47.22 17.948v-.002.001ZM25.663 46.217l.013-.006-.008.003-.005.003ZM24.898 46.313l.046.008-.012-.002-.034-.007ZM25.485 46.285l-.014.004h-.002l-.02.006.045-.012.012-.004-.005.002-.016.004Z" fill="#FCA326" />
    <path d="M24.588 46.194a1.167 1.167 0 0 1-.111-.069l-.004-.002-.005-.003.027.02a.71.71 0 0 0 .017.01c.011.008.023.014.035.021l.007.005.038.022.002.001.01.004h-.001l-.015-.01ZM47.221 17.947l.003.013-.003-.012v-.001ZM25.648 46.222c-.018.009-.038.016-.057.024-.02.008-.04.018-.06.025l-.003.001-.01.004.027-.01.029-.01c.008-.003.015-.008.023-.01l.03-.014.036-.016.005-.002-.006.002-.014.006ZM3.08 17.947l-.003.012.004-.014v.001ZM24.758 46.271c-.02-.007-.038-.016-.058-.024l-.061-.025-.014-.006-.005-.002c.002 0 .003.002.005.003l.035.016.03.012c.009.004.016.008.024.01a.84.84 0 0 0 .029.012l.027.01-.01-.005h-.002ZM25.31 46.323c-.054.008-.11.014-.165.014h-.002c-.056 0-.111-.006-.165-.014h-.003l.005.001.03.005.01.001c.035.004.07.005.105.006h.007l.011.001H25.156l.007-.001c.035 0 .07-.002.104-.006h.011l.03-.006h.005-.003ZM24.44 46.1a1.178 1.178 0 0 1-.106-.09l-.006-.005-.004-.003.05.045.025.022.003.003.013.011.03.023c0-.002-.002-.003-.004-.004l-.001-.002ZM25.701 46.196l-.015.01.008-.004.002-.001.04-.024.006-.003.034-.02.017-.011.027-.02-.009.006a1.198 1.198 0 0 1-.11.067ZM24.893 46.307c-.028-.006-.056-.012-.084-.02l-.006-.002.014.004h.002l.02.007.037.01.022.005.033.006-.005-.002-.033-.008ZM25.954 46.01a1.205 1.205 0 0 1-.105.09h-.001l-.005.005.03-.022.013-.011.003-.003a.803.803 0 0 0 .075-.067l-.006.004c0 .002-.002.003-.004.004ZM25.396 46.307l-.034.008-.005.001.034-.005.022-.005.037-.01c.007-.002.013-.005.02-.006h.002l.013-.005-.005.002c-.028.008-.056.014-.084.02Z" fill="#FC6D26" />
    <path d="m49.87 26.104-2.649-8.158.003.011-.003-.012v-.001L41.963 1.756A2.072 2.072 0 0 0 39.976.338c-.91.005-1.68.566-1.96 1.43l-4.992 15.366H17.276l-5-15.366a2.044 2.044 0 0 0-1.96-1.43h-.012c-.896 0-1.689.569-1.98 1.431L3.082 17.942v.003l-.004.012.003-.01L.42 26.103a2.973 2.973 0 0 0 1.08 3.33l22.954 16.678c.004.003.008.004.01.007l.03.02c-.01-.006-.018-.013-.027-.02l.005.004.003.002h.001c.035.025.072.048.11.068l.016.01.01.005.007.003.005.003.014.005c.02.01.04.017.061.026.02.008.038.017.058.024h.002l.01.005.012.004.005.001.015.004.007.002c.027.008.056.014.084.02l.034.008.004.002.011.002.018.004.015.001h.003c.054.008.11.014.165.014h.002c.056 0 .111-.006.165-.014h.004l.014-.001.019-.004.01-.002.005-.002.034-.008c.028-.006.056-.012.084-.02.001 0 .003 0 .005-.002l.017-.004h.005l.012-.005.01-.004.002-.001.06-.026.058-.023c.004-.003.01-.004.014-.006l.005-.002.008-.004.01-.005.015-.01c.038-.02.075-.043.11-.067l.01-.006.002-.001.01-.007L48.79 29.434a2.973 2.973 0 0 0 1.08-3.33ZM39.99 3.273l4.503 13.86h-9.004l4.502-13.86Zm3.715 16.205-1.837 2.353-13.55 17.362 6.41-19.715h8.977ZM24.03 45.526c0 .004.003.007.004.01l-.004-.01Zm-2.056-6.332L6.595 19.478h8.979l6.4 19.716ZM10.301 3.272l4.51 13.862H5.808L10.3 3.272ZM2.88 27.54a.634.634 0 0 1-.23-.71l1.976-6.065 14.48 18.564L2.88 27.538ZM24.415 46.08l-.013-.011-.003-.003a.79.79 0 0 1-.075-.067l.004.003.006.005c.033.032.069.062.105.09l.002.001.005.005-.031-.023Zm.73-4.71-3.766-11.602-3.341-10.291h14.224L25.145 41.37Zm.77 4.674-.026.022-.003.003-.013.011-.03.023.005-.005c.038-.028.073-.058.106-.09l.005-.004.005-.005-.048.045Zm21.497-18.507L31.188 39.325l14.485-18.56 1.968 6.063a.634.634 0 0 1-.229.71Z" fill="#fff" />
</svg>