<svg width="250" height="50" viewBox="0 0 250 50" fill="none" xmlns="http://www.w3.org/2000/svg">
    <path fill-rule="evenodd" clip-rule="evenodd" d="M81.99 38.866c2.399 2.026 4.75 3.132 6.585 3.132a3.009 3.009 0 0 0 1.787-.507c.988-.599 1.693-1.75 2.023-3.408.282-1.52.235-3.455-.189-5.482-.07-.3-.145-.6-.224-.9.248-.066.495-.134.742-.205 4.421-1.428 7.15-3.777 7.15-6.034 0-1.152-.66-2.257-1.93-3.317-1.175-.967-2.821-1.842-4.797-2.487-.379-.13-.77-.254-1.173-.37.064-.245.126-.49.185-.736.941-4.468.283-7.922-1.74-9.074-.988-.553-2.352-.553-3.904 0-1.41.507-3.01 1.474-4.562 2.81-.317.285-.628.575-.935.87-.234-.231-.471-.46-.711-.686-3.481-2.994-6.867-4.192-8.89-3.04-.988.553-1.646 1.704-1.928 3.316-.283 1.474-.236 3.317.188 5.298.08.411.173.832.28 1.26-.456.124-.91.257-1.362.398C64.445 21.132 62 23.25 62 25.462c0 1.151.658 2.303 1.975 3.408a15.82 15.82 0 0 0 4.94 2.58c.361.109.725.212 1.09.31a37.16 37.16 0 0 0-.338 1.394c-.8 4.192-.141 7.324 1.787 8.43.47.276 1.082.414 1.787.414.659 0 1.364-.138 2.305-.369 1.505-.506 3.151-1.52 4.75-2.901.256-.238.509-.479.758-.723.307.292.619.579.936.86Zm.176-1.998a38.354 38.354 0 0 0 3.269-3.988 40.356 40.356 0 0 0 4.928-.784c.082.305.16.612.234.92.847 4.053.047 6.587-1.034 7.186-1.459.829-4.28-.691-6.491-2.534-.3-.25-.602-.517-.906-.8Zm9.367-6.696c.21-.063.415-.128.616-.196 4.186-1.336 6.068-3.27 6.068-4.514 0-.6-.47-1.382-1.364-2.073a14.074 14.074 0 0 0-4.28-2.211c-.353-.108-.708-.21-1.064-.307a37.652 37.652 0 0 1-1.79 4.648 35.932 35.932 0 0 1 1.814 4.653Zm-2.777-2.72a35.234 35.234 0 0 1 1.166 3.143 33.29 33.29 0 0 1-3.333.57c.38-.6.745-1.212 1.092-1.834.377-.617.735-1.244 1.075-1.88Zm-.923-1.993a36.288 36.288 0 0 1-1.657 2.997 49.644 49.644 0 0 1-1.841 2.923c-1.127.078-2.29.117-3.474.117-1.114.03-2.226.008-3.335-.063a42.977 42.977 0 0 1-1.886-2.931 42.845 42.845 0 0 1-1.663-3.043 36.56 36.56 0 0 1 1.616-2.945 38.49 38.49 0 0 1 1.837-2.867 47.286 47.286 0 0 1 3.478-.127 38.446 38.446 0 0 1 3.453.11c.65.932 1.255 1.894 1.815 2.884.6.957 1.153 1.94 1.657 2.945Zm.877-1.918c.426-1.01.807-2.04 1.14-3.084a38.319 38.319 0 0 0-3.365-.603c.383.585.75 1.18 1.102 1.784a36.24 36.24 0 0 1 1.123 1.903Zm-3.442-5.446a38.68 38.68 0 0 1 5.048.77c.065-.241.127-.484.187-.727a13.54 13.54 0 0 0 .282-5.021c-.188-1.198-.611-2.027-1.222-2.35-.565-.322-1.459-.276-2.54.093a14.627 14.627 0 0 0-4.092 2.533c-.298.273-.592.551-.88.833a40.818 40.818 0 0 1 3.217 3.87Zm-4.361-2.705a36.628 36.628 0 0 1 2.213 2.564 50.143 50.143 0 0 0-2.165-.047c-.751-.01-1.502.001-2.25.033.695-.88 1.43-1.731 2.202-2.55Zm-1.056-1.07c-.21-.204-.422-.405-.636-.604a14.433 14.433 0 0 0-4.327-2.718c-1.13-.415-2.117-.46-2.681-.138-.565.322-.941 1.105-1.176 2.21a13.537 13.537 0 0 0 .188 4.7c.077.375.165.758.266 1.148a39.684 39.684 0 0 1 5.206-.84 38.794 38.794 0 0 1 3.16-3.758Zm-9.477 6.493a23.04 23.04 0 0 0-1.319.41c-2.728.922-5.503 2.626-5.503 4.239 0 .645.518 1.428 1.411 2.21 1.082.876 2.587 1.705 4.422 2.304.347.104.696.202 1.046.296a37.177 37.177 0 0 1 1.817-4.718 37.158 37.158 0 0 1-1.874-4.74Zm2.792 2.902a34.501 34.501 0 0 1-1.245-3.287 36.8 36.8 0 0 1 3.547-.592 38.547 38.547 0 0 0-1.192 1.94c-.39.636-.76 1.283-1.11 1.939Zm-.037 3.602a36.31 36.31 0 0 0-1.215 3.317 36.66 36.66 0 0 0 3.504.602 37.542 37.542 0 0 1-1.189-1.951 47.103 47.103 0 0 1-1.1-1.968Zm3.456 5.608a38.343 38.343 0 0 1-5.103-.8c-.11.418-.214.838-.31 1.26-.518 2.763-.423 5.941 1.035 6.77 1.081.6 3.715.047 6.914-2.717.237-.205.475-.42.714-.645a37.857 37.857 0 0 1-3.25-3.868Zm2.139.129a35.59 35.59 0 0 0 2.23 2.609 33.162 33.162 0 0 0 2.194-2.627c-.746.03-1.493.038-2.24.026-.729.018-1.457.015-2.184-.008Zm5.57-7.592c0 1.831-1.516 3.316-3.386 3.316s-3.386-1.485-3.386-3.316c0-1.832 1.516-3.317 3.386-3.317s3.387 1.485 3.387 3.317Zm34.477 11.7-6.161-9.443h-4.845v9.442h-3.01V13.44h9.736c4.421 0 7.573 2.764 7.573 7.14 0 4.284-2.964 6.633-6.303 6.91l6.538 9.672h-3.528Zm.188-16.583c0-2.672-1.975-4.514-4.844-4.514h-6.35v9.074h6.35c2.869 0 4.844-1.889 4.844-4.56Zm14.675-1.013c-5.032 0-8.654 4.007-8.654 8.982 0 5.389 3.763 9.028 8.936 9.074a9.679 9.679 0 0 0 3.755-.616 9.529 9.529 0 0 0 3.207-2.01l-1.317-1.75c-1.364 1.382-3.434 2.165-5.409 2.165-3.763 0-6.068-2.718-6.303-5.942h14.205v-.69c0-5.16-3.105-9.213-8.42-9.213Zm-5.785 7.922c.141-2.625 1.975-5.711 5.738-5.711 3.998 0 5.739 3.132 5.786 5.711h-11.524Zm28.503 9.673v-1.934a7.575 7.575 0 0 1-2.648 1.822 7.713 7.713 0 0 1-3.184.573c-2.963 0-6.162-1.935-6.162-5.712 0-3.823 3.152-5.665 6.162-5.665 2.399 0 4.374.737 5.832 2.349v-3.086c0-2.303-1.881-3.64-4.421-3.64-2.117 0-3.81.738-5.362 2.396l-1.27-1.842c1.881-1.935 4.139-2.856 7.008-2.856 3.716 0 6.773 1.658 6.773 5.803v11.792h-2.728Zm0-6.863c-1.035-1.428-2.916-2.119-4.844-2.119-2.54 0-4.328 1.566-4.328 3.777 0 2.165 1.788 3.731 4.328 3.731 1.928 0 3.762-.737 4.844-2.164v-3.225Zm14.064-10.732c-5.221 0-8.749 3.915-8.749 8.982 0 5.113 3.528 9.028 8.749 9.074a7.71 7.71 0 0 0 3.604-.708 7.536 7.536 0 0 0 2.839-2.286l-1.834-1.658c-1.176 1.566-2.634 2.257-4.468 2.257-3.763 0-6.068-2.81-6.068-6.633s2.305-6.633 6.068-6.633a5.265 5.265 0 0 1 2.533.561 5.133 5.133 0 0 1 1.935 1.696l1.834-1.658c-1.364-1.705-3.245-2.994-6.443-2.994Zm10.818 2.763v11.24c0 2.579 1.27 4.007 3.857 4.053a4.602 4.602 0 0 0 1.759-.23 4.542 4.542 0 0 0 1.533-.876l-.8-1.98c-.329.368-1.081.69-1.834.69-1.223 0-1.787-.92-1.787-2.21V22.329h3.574V19.98h-3.574v-4.698h-2.728v4.698h-2.917v2.35h2.917Z" fill="#fff" />
</svg>