<svg width="200" height="40" viewBox="0 0 200 40" fill="none" xmlns="http://www.w3.org/2000/svg">
<path fill-rule="evenodd" clip-rule="evenodd" d="M53.28 31.663C51.5733 31.663 49.9307 31.4336 48.352 30.975C46.7733 30.5163 45.4614 29.8816 44.416 29.071L46.016 25.519C48.192 27.0337 50.6347 27.791 53.344 27.791C54.752 27.791 55.8347 27.5616 56.592 27.103C57.3494 26.6443 57.728 26.0096 57.728 25.199C57.728 24.4736 57.3814 23.9083 56.688 23.503C55.9947 23.0976 54.7627 22.703 52.992 22.319C51.008 21.9136 49.424 21.423 48.24 20.847C47.056 20.271 46.192 19.5616 45.648 18.719C45.104 17.8763 44.832 16.8363 44.832 15.599C44.832 14.2336 45.2107 13.0176 45.968 11.951C46.7254 10.8843 47.7867 10.047 49.152 9.43898C50.5174 8.83097 52.096 8.52698 53.888 8.52698C55.488 8.52698 57.0293 8.76164 58.512 9.23098C59.9947 9.70031 61.1733 10.3296 62.048 11.119L60.448 14.671C58.3787 13.1563 56.2027 12.399 53.92 12.399C52.6187 12.399 51.5947 12.6496 50.848 13.151C50.1013 13.6523 49.728 14.3403 49.728 15.215C49.728 15.727 49.872 16.1483 50.16 16.479C50.448 16.8096 50.928 17.103 51.6 17.359C52.272 17.615 53.2267 17.8816 54.464 18.159C57.3654 18.799 59.4507 19.6203 60.72 20.623C61.9894 21.6256 62.624 23.0123 62.624 24.783C62.624 26.9163 61.8027 28.5963 60.16 29.823C58.5173 31.0496 56.224 31.663 53.28 31.663ZM74.208 28.079C74.6987 28.079 75.2107 28.047 75.744 27.983L75.488 31.503C74.8693 31.5883 74.2507 31.631 73.632 31.631C71.2427 31.631 69.4987 31.1083 68.4 30.063C67.3013 29.0176 66.752 27.4283 66.752 25.295V19.279H63.776V15.663H66.752V11.055H71.584V15.663H75.52V19.279H71.584V25.263C71.584 27.1403 72.4587 28.079 74.208 28.079ZM85.44 31.631C83.776 31.631 82.3147 31.295 81.056 30.623C79.7973 29.951 78.8267 29.0016 78.144 27.775C77.4613 26.5483 77.12 25.103 77.12 23.439C77.12 21.775 77.4613 20.3297 78.144 19.103C78.8267 17.8763 79.7973 16.9323 81.056 16.271C82.3147 15.6096 83.776 15.279 85.44 15.279C87.104 15.279 88.5653 15.6096 89.824 16.271C91.0827 16.9323 92.0533 17.8763 92.736 19.103C93.4187 20.3297 93.76 21.775 93.76 23.439C93.76 25.103 93.4187 26.5483 92.736 27.775C92.0533 29.0016 91.0827 29.951 89.824 30.623C88.5653 31.295 87.104 31.631 85.44 31.631ZM85.44 27.951C87.7867 27.951 88.96 26.447 88.96 23.439C88.96 21.9243 88.656 20.7936 88.048 20.047C87.44 19.3003 86.5707 18.927 85.44 18.927C83.0933 18.927 81.92 20.431 81.92 23.439C81.92 26.447 83.0933 27.951 85.44 27.951ZM107.136 19.247L104.416 19.535C103.072 19.663 102.123 20.0416 101.568 20.671C101.013 21.3003 100.736 22.1376 100.736 23.183V31.375H95.904V15.663H100.544V18.319C101.333 16.5056 102.965 15.5136 105.44 15.343L106.848 15.247L107.136 19.247ZM121.176 15.695H125.912L116.44 37.135H111.544L114.552 30.511L108.088 15.695H113.112L117.08 25.679L121.176 15.695ZM137.112 15.279C138.477 15.279 139.683 15.6096 140.728 16.271C141.773 16.9323 142.589 17.8763 143.176 19.103C143.763 20.3297 144.056 21.7536 144.056 23.375C144.056 24.9963 143.763 26.431 143.176 27.679C142.589 28.927 141.768 29.8976 140.712 30.591C139.656 31.2843 138.456 31.631 137.112 31.631C136.024 31.631 135.043 31.4016 134.168 30.943C133.293 30.4843 132.621 29.8496 132.152 29.039V31.375H127.384V8.81498H132.216V17.775C132.685 16.9856 133.352 16.3723 134.216 15.935C135.08 15.4976 136.045 15.279 137.112 15.279ZM135.704 27.951C136.835 27.951 137.709 27.551 138.328 26.751C138.947 25.951 139.256 24.8257 139.256 23.375C139.256 21.9456 138.947 20.8523 138.328 20.095C137.709 19.3376 136.835 18.959 135.704 18.959C134.573 18.959 133.699 19.3483 133.08 20.127C132.461 20.9056 132.152 22.0096 132.152 23.439C132.152 24.8897 132.461 26.0043 133.08 26.783C133.699 27.5616 134.573 27.951 135.704 27.951ZM154.552 31.631C152.888 31.631 151.427 31.295 150.168 30.623C148.909 29.951 147.939 29.0016 147.256 27.775C146.573 26.5483 146.232 25.103 146.232 23.439C146.232 21.775 146.573 20.3297 147.256 19.103C147.939 17.8763 148.909 16.9323 150.168 16.271C151.427 15.6096 152.888 15.279 154.552 15.279C156.216 15.279 157.677 15.6096 158.936 16.271C160.195 16.9323 161.165 17.8763 161.848 19.103C162.531 20.3297 162.872 21.775 162.872 23.439C162.872 25.103 162.531 26.5483 161.848 27.775C161.165 29.0016 160.195 29.951 158.936 30.623C157.677 31.295 156.216 31.631 154.552 31.631ZM154.552 27.951C156.899 27.951 158.072 26.447 158.072 23.439C158.072 21.9243 157.768 20.7936 157.16 20.047C156.552 19.3003 155.683 18.927 154.552 18.927C152.205 18.927 151.032 20.431 151.032 23.439C151.032 26.447 152.205 27.951 154.552 27.951ZM172.568 31.631C170.904 31.631 169.443 31.295 168.184 30.623C166.925 29.951 165.955 29.0016 165.272 27.775C164.589 26.5483 164.248 25.103 164.248 23.439C164.248 21.775 164.589 20.3297 165.272 19.103C165.955 17.8763 166.925 16.9323 168.184 16.271C169.443 15.6096 170.904 15.279 172.568 15.279C174.232 15.279 175.693 15.6096 176.952 16.271C178.211 16.9323 179.181 17.8763 179.864 19.103C180.547 20.3297 180.888 21.775 180.888 23.439C180.888 25.103 180.547 26.5483 179.864 27.775C179.181 29.0016 178.211 29.951 176.952 30.623C175.693 31.295 174.232 31.631 172.568 31.631ZM172.568 27.951C174.915 27.951 176.088 26.447 176.088 23.439C176.088 21.9243 175.784 20.7936 175.176 20.047C174.568 19.3003 173.699 18.927 172.568 18.927C170.221 18.927 169.048 20.431 169.048 23.439C169.048 26.447 170.221 27.951 172.568 27.951ZM200 31.375H194.08L188.064 24.367V31.375H183.232V8.81498H188.064V22.383L193.856 15.695H199.616L193.024 23.183L200 31.375Z" fill="white"/>
<mask id="mask0_14_3" style="mask-type:alpha" maskUnits="userSpaceOnUse" x="0" y="0" width="33" height="40">
<path d="M1.24056 36.8587L0.00144019 3.84178C-0.039483 2.75137 0.796611 1.82725 1.88567 1.75918L29.9688 0.0039847C31.0774 -0.0652987 32.0322 0.777181 32.1015 1.88571C32.1041 1.92748 32.1054 1.96932 32.1054 2.01116V37.9889C32.1054 39.0996 31.205 40 30.0943 40C30.0642 40 30.0341 39.9993 30.0041 39.998L3.16001 38.7923C2.11454 38.7454 1.27981 37.9045 1.24056 36.8587Z" fill="white"/>
</mask>
<g mask="url(#mask0_14_3)">
<path fill-rule="evenodd" clip-rule="evenodd" d="M1.24056 36.8587L0.00144019 3.84178C-0.039483 2.75137 0.796611 1.82725 1.88567 1.75918L23.8959 0.383545L23.7074 4.91664C23.7045 4.98632 23.726 5.05484 23.7681 5.11041C23.8683 5.24241 24.0565 5.26825 24.1885 5.16811L25.9493 3.83239L27.4366 5.00399C27.4923 5.04789 27.5618 5.07062 27.6327 5.06815C27.7983 5.06237 27.9278 4.92344 27.922 4.75786L27.7609 0.141984L29.9688 0.0039847C31.0774 -0.0652987 32.0322 0.777181 32.1015 1.88571C32.1041 1.92748 32.1054 1.96932 32.1054 2.01116V37.9889C32.1054 39.0996 31.205 40 30.0943 40L30.0615 39.9997C30.0423 39.9994 30.0232 39.9988 30.0041 39.998L3.16001 38.7923C2.11454 38.7454 1.27981 37.9045 1.24056 36.8587ZM24.753 14.9344C24.0455 15.484 18.7751 15.859 18.7751 15.0766C18.8865 12.091 17.5498 11.9601 16.8072 11.9601C16.1018 11.9601 14.9136 12.1733 14.9136 13.7728C14.9136 15.4027 16.65 16.3228 18.688 17.4028C21.5832 18.9371 25.0871 20.7939 25.0871 25.4664C25.0871 29.9448 21.4484 32.4187 16.8072 32.4187C12.0175 32.4187 7.83183 30.4809 8.30456 23.7625C8.49021 22.9735 14.5795 23.161 14.5795 23.7625C14.5052 26.5348 15.1364 27.3502 16.733 27.3502C17.9583 27.3502 18.5152 26.6749 18.5152 25.5375C18.5152 23.8162 16.7061 22.8005 14.6249 21.632C11.8069 20.0499 8.49021 18.1877 8.49021 13.9149C8.49021 9.64977 11.4235 6.80634 16.6587 6.80634C21.894 6.80634 24.753 9.60621 24.753 14.9344Z" fill="white"/>
</g>
</svg>
