<svg width="100%" height="100%" viewBox="0 0 32 32" fill="none" xmlns="http://www.w3.org/2000/svg">
    <path d="M29 8.486c-.956.422-1.985.706-3.064.835a5.323 5.323 0 0 0 2.346-2.933 10.718 10.718 0 0 1-3.388 1.286A5.342 5.342 0 0 0 21.001 6c-2.946 0-5.335 2.374-5.335 5.301 0 .416.048.82.139 1.208A15.175 15.175 0 0 1 4.81 6.97a5.29 5.29 0 0 0 1.65 7.078 5.337 5.337 0 0 1-2.415-.663v.067c0 2.568 1.838 4.71 4.278 5.198a5.37 5.37 0 0 1-2.409.091 5.335 5.335 0 0 0 4.983 3.682 10.744 10.744 0 0 1-6.625 2.27c-.43 0-.855-.026-1.272-.075A15.165 15.165 0 0 0 11.177 27c9.811 0 15.177-8.078 15.177-15.084 0-.23-.005-.459-.016-.686A10.8 10.8 0 0 0 29 8.486Z" fill="#fff" />
</svg>